<svg width="68" height="68" viewBox="0 0 68 68" fill="none" xmlns="http://www.w3.org/2000/svg">
<rect width="68" height="68" rx="34" fill="black"/>
<path d="M38.4969 27.8027C38.6708 27.8027 38.94 27.823 39.3043 27.8634C39.677 27.8958 40.0994 27.9848 40.5714 28.1305C41.0435 28.2762 41.5238 28.5109 42.0124 28.8346C42.501 29.1583 42.9524 29.6115 43.3665 30.1942C43.3251 30.2185 43.1677 30.3278 42.8944 30.522C42.6294 30.7162 42.3271 30.9995 41.9876 31.3718C41.648 31.736 41.3499 32.2013 41.0932 32.7678C40.8447 33.3263 40.7205 33.9939 40.7205 34.7709C40.7205 35.6611 40.8778 36.4138 41.1925 37.0288C41.5155 37.6439 41.8882 38.1416 42.3106 38.522C42.7412 38.9024 43.1222 39.1816 43.4534 39.3596C43.793 39.5296 43.9752 39.6186 44 39.6267C43.9917 39.6591 43.9296 39.8412 43.8137 40.173C43.6977 40.4967 43.5155 40.9176 43.2671 41.4355C43.0269 41.9454 42.7122 42.4795 42.323 43.0379C41.9669 43.5316 41.5983 44.0051 41.2174 44.4583C40.8447 44.9115 40.4348 45.2797 39.9876 45.563C39.5487 45.8543 39.0518 46 38.4969 46C38.0745 46 37.7143 45.9514 37.4161 45.8543C37.118 45.7572 36.8323 45.6439 36.559 45.5144C36.294 45.393 36 45.2838 35.677 45.1866C35.354 45.0895 34.9524 45.041 34.472 45.041C33.8427 45.041 33.3168 45.1179 32.8944 45.2716C32.4803 45.4335 32.087 45.5953 31.7143 45.7572C31.3416 45.9191 30.9027 46 30.3975 46C29.6273 46 28.9482 45.7046 28.3602 45.1138C27.7805 44.523 27.1843 43.8108 26.5714 42.9772C26.0994 42.3136 25.6687 41.5488 25.2795 40.6829C24.8903 39.8169 24.5797 38.8983 24.3478 37.9272C24.1159 36.956 24 35.9848 24 35.0137C24 33.4598 24.3023 32.1487 24.9068 31.0804C25.5114 30.004 26.2857 29.1907 27.2298 28.6404C28.1739 28.0819 29.1553 27.8027 30.1739 27.8027C30.7122 27.8027 31.2174 27.8958 31.6894 28.0819C32.1698 28.2681 32.617 28.4542 33.0311 28.6404C33.4451 28.8184 33.8219 28.9074 34.1615 28.9074C34.4845 28.9074 34.8654 28.8184 35.3043 28.6404C35.7433 28.4542 36.2277 28.2681 36.7578 28.0819C37.2961 27.8958 37.8758 27.8027 38.4969 27.8027ZM37.6273 25.8361C37.2133 26.3298 36.6915 26.7385 36.0621 27.0622C35.441 27.3859 34.853 27.5478 34.2981 27.5478C34.1822 27.5478 34.0704 27.5357 33.9627 27.5114C33.9545 27.479 33.942 27.4224 33.9255 27.3414C33.9172 27.2605 33.913 27.1715 33.913 27.0744C33.913 26.4593 34.0497 25.8604 34.323 25.2777C34.5963 24.695 34.911 24.2094 35.2671 23.8209C35.706 23.3111 36.2609 22.8862 36.9317 22.5463C37.6108 22.2064 38.2609 22.0243 38.882 22C38.9068 22.1376 38.9193 22.2954 38.9193 22.4734C38.9193 23.0966 38.7992 23.7036 38.559 24.2944C38.3188 24.8771 38.0083 25.391 37.6273 25.8361Z" fill="white"/>
</svg>
