<svg width="24" height="24" viewBox="0 0 24 24" fill="none" xmlns="http://www.w3.org/2000/svg">
<path d="M11.1033 5.81698C11.4701 5.07374 12.5299 5.07374 12.8967 5.81699L14.1185 8.29249C14.2641 8.58763 14.5457 8.7922 14.8714 8.83953L17.6033 9.2365C18.4235 9.35568 18.751 10.3637 18.1575 10.9422L16.1807 12.8691C15.945 13.0988 15.8375 13.4298 15.8931 13.7542L16.3598 16.4751C16.4999 17.292 15.6424 17.9149 14.9088 17.5293L12.4653 16.2446C12.174 16.0915 11.826 16.0915 11.5347 16.2446L9.09119 17.5293C8.35756 17.9149 7.50013 17.292 7.64024 16.4751L8.1069 13.7542C8.16254 13.4298 8.05499 13.0988 7.81931 12.8691L5.8425 10.9422C5.24898 10.3637 5.57649 9.35568 6.39671 9.2365L9.12859 8.83953C9.4543 8.7922 9.73587 8.58763 9.88153 8.29249L11.1033 5.81698Z" fill="#303030"/>
</svg>
