<svg width="48" height="48" viewBox="0 0 48 48" fill="none" xmlns="http://www.w3.org/2000/svg">
<path d="M21.142 33.224C19.4881 32.7301 17.9902 31.8164 16.794 30.572C17.1788 30.1156 17.4187 29.5547 17.483 28.9611C17.5473 28.3676 17.433 27.7683 17.1547 27.2401C16.8765 26.7119 16.447 26.2787 15.9211 25.996C15.3953 25.7132 14.7971 25.5938 14.203 25.653C14.0674 24.9901 13.9993 24.3151 14 23.6385C14 22.5935 14.16 21.5855 14.458 20.6385H14.5C15.0099 20.6387 15.5114 20.5089 15.9572 20.2614C16.403 20.0139 16.7783 19.6568 17.0478 19.224C17.3172 18.7911 17.4719 18.2968 17.4973 17.7875C17.5226 17.2783 17.4177 16.771 17.1925 16.3135C18.3652 15.2224 19.7828 14.429 21.326 14C21.5772 14.4932 21.9599 14.9073 22.4319 15.1965C22.9038 15.4857 23.4465 15.6386 24 15.6385C24.5535 15.6386 25.0962 15.4857 25.5682 15.1965C26.0401 14.9073 26.4228 14.4932 26.674 14C28.2172 14.429 29.6348 15.2224 30.8075 16.3135C30.5807 16.7742 30.4759 17.2853 30.5031 17.7981C30.5304 18.3108 30.6888 18.808 30.9632 19.242C31.2376 19.676 31.6188 20.0323 32.0703 20.2768C32.5219 20.5214 33.0286 20.6459 33.542 20.6385C33.8464 21.6094 34.0008 22.621 34 23.6385C34 24.3285 33.93 25.0025 33.797 25.6535C33.2029 25.5943 32.6047 25.7137 32.0789 25.9965C31.553 26.2792 31.1235 26.7124 30.8453 27.2406C30.5671 27.7688 30.4528 28.3681 30.517 28.9616C30.5813 29.5552 30.8212 30.1161 31.206 30.5725C30.0098 31.8168 28.5119 32.7302 26.858 33.224C26.6638 32.6186 26.2824 32.0906 25.7687 31.716C25.2551 31.3413 24.6358 31.1395 24 31.1395C23.3643 31.1395 22.7449 31.3413 22.2313 31.716C21.7176 32.0906 21.3362 32.6186 21.142 33.224Z" stroke="#303030" stroke-width="2" stroke-linejoin="round"/>
<path d="M24 27.1385C24.4596 27.1385 24.9148 27.048 25.3394 26.8721C25.764 26.6962 26.1499 26.4384 26.4749 26.1134C26.7999 25.7884 27.0577 25.4025 27.2336 24.9779C27.4095 24.5532 27.5 24.0981 27.5 23.6385C27.5 23.1789 27.4095 22.7237 27.2336 22.2991C27.0577 21.8745 26.7999 21.4886 26.4749 21.1636C26.1499 20.8386 25.764 20.5808 25.3394 20.4049C24.9148 20.229 24.4596 20.1385 24 20.1385C23.0717 20.1385 22.1815 20.5072 21.5251 21.1636C20.8687 21.82 20.5 22.7102 20.5 23.6385C20.5 24.5667 20.8687 25.457 21.5251 26.1134C22.1815 26.7697 23.0717 27.1385 24 27.1385Z" stroke="#303030" stroke-width="2" stroke-linejoin="round"/>
</svg>
