<svg width="24" height="24" viewBox="0 0 24 24" fill="none" xmlns="http://www.w3.org/2000/svg">
<path d="M3.56303 7.48206L9.56303 2.87231C11.0001 1.76822 12.9999 1.76822 14.437 2.87231L20.437 7.48206C21.4224 8.23917 22 9.41129 22 10.654V20C22 21.1046 21.1046 22 20 22H17C15.8954 22 15 21.1046 15 20V16.5C15 15.3954 14.1046 14.5 13 14.5H11C9.89543 14.5 9 15.3954 9 16.5V20C9 21.1046 8.10457 22 7 22H4C2.89543 22 2 21.1046 2 20V10.654C2 9.41129 2.57758 8.23917 3.56303 7.48206Z" stroke="#303030" stroke-width="1.5" stroke-linecap="round"/>
</svg>
