<svg width="48" height="48" viewBox="0 0 48 48" fill="none" xmlns="http://www.w3.org/2000/svg">
<path d="M21.5871 32.3558C21.2633 32.7935 20.7221 33.1041 20.2183 32.8981C19.2075 32.4847 18.2711 31.9085 17.4464 31.1922C17.0599 30.8566 17.0637 30.2788 17.2632 29.8074C17.3768 29.539 17.4513 29.2541 17.483 28.9611C17.5473 28.3676 17.433 27.7683 17.1547 27.2401C16.8765 26.7119 16.447 26.2787 15.9211 25.996C15.6622 25.8567 15.3857 25.7571 15.1008 25.6989C14.5985 25.5963 14.1193 25.2714 14.0622 24.762C14.0204 24.3892 13.9996 24.0141 14 23.6385C14 22.5935 14.16 21.5855 14.458 20.6385H14.5C15.0099 20.6387 15.5114 20.5089 15.9572 20.2614C16.403 20.0139 16.7783 19.6568 17.0478 19.224C17.3172 18.7911 17.4719 18.2968 17.4973 17.7875C17.5102 17.5272 17.4891 17.2673 17.4353 17.0144C17.3435 16.5826 17.4107 16.1035 17.7553 15.8276C18.5954 15.1552 19.5385 14.6228 20.548 14.251C20.9944 14.0865 21.4692 14.3192 21.7912 14.6694C21.9784 14.873 22.1938 15.0506 22.4319 15.1965C22.9038 15.4857 23.4465 15.6386 24 15.6385C24.5535 15.6386 25.0962 15.4857 25.5681 15.1965C25.8062 15.0506 26.0216 14.873 26.2088 14.6694C26.5308 14.3192 27.0056 14.0865 27.452 14.251C28.4615 14.6228 29.4045 15.1551 30.2446 15.8276C30.5893 16.1034 30.6565 16.5827 30.5646 17.0145C30.51 17.2708 30.4891 17.5342 30.5031 17.7981C30.5304 18.3108 30.6888 18.808 30.9632 19.242C31.2376 19.676 31.6188 20.0323 32.0703 20.2768C32.3021 20.4024 32.5485 20.4963 32.8028 20.5569C33.2331 20.6596 33.6378 20.9268 33.7383 21.3576C33.9127 22.1045 34.0006 22.8699 34 23.6385C34 24.0183 33.9788 24.3932 33.9375 24.7622C33.8806 25.2718 33.4013 25.5968 32.8989 25.6995C32.6141 25.7577 32.3377 25.8573 32.0789 25.9965C31.553 26.2792 31.1235 26.7124 30.8453 27.2406C30.567 27.7688 30.4527 28.3681 30.517 28.9616C30.5487 29.2545 30.6232 29.5395 30.7368 29.8078C30.9362 30.2792 30.94 30.8571 30.5535 31.1927C29.7288 31.9088 28.7924 32.4849 27.7817 32.8982C27.2778 33.1042 26.7367 32.7935 26.413 32.3559C26.233 32.1126 26.0162 31.8965 25.7687 31.716C25.2551 31.3413 24.6358 31.1395 24 31.1395C23.3643 31.1395 22.7449 31.3413 22.2313 31.716C21.9838 31.8965 21.767 32.1126 21.5871 32.3558Z" stroke="#303030" stroke-width="1.7" stroke-linejoin="round"/>
<path d="M24 27.1385C24.4596 27.1385 24.9148 27.048 25.3394 26.8721C25.764 26.6962 26.1499 26.4384 26.4749 26.1134C26.7999 25.7884 27.0577 25.4025 27.2336 24.9779C27.4095 24.5532 27.5 24.0981 27.5 23.6385C27.5 23.1789 27.4095 22.7237 27.2336 22.2991C27.0577 21.8745 26.7999 21.4886 26.4749 21.1636C26.1499 20.8386 25.764 20.5808 25.3394 20.4049C24.9148 20.229 24.4596 20.1385 24 20.1385C23.0717 20.1385 22.1815 20.5072 21.5251 21.1636C20.8687 21.82 20.5 22.7102 20.5 23.6385C20.5 24.5667 20.8687 25.457 21.5251 26.1134C22.1815 26.7697 23.0717 27.1385 24 27.1385Z" stroke="#303030" stroke-width="1.7" stroke-linejoin="round"/>
</svg>
