<svg width="24" height="24" viewBox="0 0 24 24" fill="none" xmlns="http://www.w3.org/2000/svg">
<path d="M9.142 21.224C7.48808 20.7301 5.99017 19.8164 4.794 18.572C5.17884 18.1156 5.41874 17.5547 5.483 16.9611C5.54726 16.3676 5.43296 15.7683 5.15473 15.2401C4.87649 14.7119 4.44698 14.2787 3.92115 13.996C3.39532 13.7132 2.79709 13.5938 2.203 13.653C2.06736 12.9901 1.99934 12.3151 2 11.6385C2 10.5935 2.16 9.5855 2.458 8.6385H2.5C3.00988 8.63866 3.51139 8.50887 3.95717 8.26137C4.40295 8.01388 4.7783 7.65685 5.04777 7.224C5.31724 6.79114 5.47194 6.29675 5.49726 5.7875C5.52259 5.27825 5.4177 4.77095 5.1925 4.3135C6.36517 3.22242 7.78277 2.429 9.326 2C9.57719 2.4932 9.95993 2.9073 10.4319 3.19648C10.9038 3.48565 11.4465 3.63864 12 3.6385C12.5535 3.63864 13.0962 3.48565 13.5682 3.19648C14.0401 2.9073 14.4228 2.4932 14.674 2C16.2172 2.429 17.6348 3.22242 18.8075 4.3135C18.5807 4.77416 18.4759 5.28532 18.5031 5.79808C18.5304 6.31083 18.6888 6.80801 18.9632 7.24201C19.2376 7.67602 19.6188 8.03233 20.0703 8.27684C20.5219 8.52135 21.0286 8.64588 21.542 8.6385C21.8464 9.60938 22.0008 10.621 22 11.6385C22 12.3285 21.93 13.0025 21.797 13.6535C21.2029 13.5943 20.6047 13.7137 20.0789 13.9965C19.553 14.2792 19.1235 14.7124 18.8453 15.2406C18.5671 15.7688 18.4528 16.3681 18.517 16.9616C18.5813 17.5552 18.8212 18.1161 19.206 18.5725C18.0098 19.8168 16.5119 20.7302 14.858 21.224C14.6638 20.6186 14.2824 20.0906 13.7687 19.716C13.2551 19.3413 12.6358 19.1395 12 19.1395C11.3643 19.1395 10.7449 19.3413 10.2313 19.716C9.71765 20.0906 9.33623 20.6186 9.142 21.224Z" stroke="#303030" stroke-width="2" stroke-linejoin="round"/>
<path d="M12 15.1385C12.4596 15.1385 12.9148 15.048 13.3394 14.8721C13.764 14.6962 14.1499 14.4384 14.4749 14.1134C14.7999 13.7884 15.0577 13.4025 15.2336 12.9779C15.4095 12.5532 15.5 12.0981 15.5 11.6385C15.5 11.1789 15.4095 10.7237 15.2336 10.2991C15.0577 9.87446 14.7999 9.48862 14.4749 9.16362C14.1499 8.83861 13.764 8.5808 13.3394 8.40491C12.9148 8.22902 12.4596 8.13849 12 8.13849C11.0717 8.13849 10.1815 8.50724 9.52513 9.16362C8.86875 9.81999 8.5 10.7102 8.5 11.6385C8.5 12.5667 8.86875 13.457 9.52513 14.1134C10.1815 14.7697 11.0717 15.1385 12 15.1385Z" stroke="#303030" stroke-width="2" stroke-linejoin="round"/>
</svg>
