<svg width="375" height="252" viewBox="0 0 375 252" fill="none" xmlns="http://www.w3.org/2000/svg">
<path d="M115.563 161.084V162.156C115.555 163.255 115.555 164.688 115.212 166.551H117.356V168.133H111.011V170.383H109.077V168.133H102.837V166.551H113.261C113.577 164.907 113.621 163.668 113.63 162.648H104.63V161.084H115.563ZM103.839 174.777C107.056 174.426 109.033 172.949 109.042 171.455V170.98H111.028V171.455C111.037 173.028 112.979 174.426 116.249 174.777L115.581 176.271C112.944 175.964 110.976 174.997 110.026 173.564C109.06 174.962 107.1 175.973 104.524 176.271L103.839 174.777ZM132.913 172.738V174.355H118.394V172.738H132.913ZM119.026 168.713C122.234 168.212 124.607 166.032 124.599 163.703V163.457H119.606V161.893H131.665V163.457H126.655V163.703C126.655 166.032 129.028 168.15 132.333 168.66L131.56 170.207C128.879 169.724 126.682 168.291 125.645 166.305C124.625 168.317 122.445 169.794 119.8 170.295L119.026 168.713ZM152.724 168.678V170.242H146.589V172.984H144.655V170.242H138.204V168.678H152.724ZM139.962 176.025V171.648H141.896V174.443H151.124V176.025H139.962ZM140.103 167.43V160.961H142.036V162.754H148.892V160.961H150.825V167.43H140.103ZM142.036 165.883H148.892V164.213H142.036V165.883ZM159.491 163.598C159.482 165.118 160.897 166.586 163.394 167.113L162.532 168.59C160.643 168.177 159.28 167.228 158.542 165.962C157.83 167.351 156.45 168.405 154.517 168.871L153.673 167.377C156.16 166.771 157.54 165.241 157.54 163.598V163.439H154.218V161.875H157.54V160.381H159.509V161.875H162.813V163.439H159.491V163.598ZM156.608 170.875V169.363H167.085V173.459H158.577V174.689H167.595V176.201H156.626V172.018H165.134V170.875H156.608ZM162.374 165.812V164.248H165.134V160.451H167.085V168.73H165.134V165.812H162.374ZM176.56 160.697C180.181 160.706 182.281 161.664 182.29 163.422C182.281 165.197 180.181 166.155 176.56 166.164C172.947 166.155 170.829 165.197 170.829 163.422C170.829 161.664 172.947 160.706 176.56 160.697ZM169.335 168.572V167.008H183.819V168.572H169.335ZM171.04 171.086V169.645H182.009V173.529H172.974V174.707H182.448V176.201H171.058V172.141H180.093V171.086H171.04ZM172.886 163.422C172.877 164.301 174.143 164.705 176.56 164.705C179.012 164.705 180.269 164.301 180.269 163.422C180.269 162.604 179.012 162.139 176.56 162.139C174.143 162.139 172.877 162.604 172.886 163.422ZM197.196 161.893V163.492H191.905V170.893C194.393 170.875 196.142 170.77 198.11 170.4L198.321 171.982C196.089 172.422 194.164 172.51 191.202 172.51H189.937V161.893H197.196ZM196.353 167.641V166.041H200.554V160.451H202.505V176.359H200.554V167.641H196.353ZM221.524 160.451V165.021H223.739V166.656H221.524V171.912H219.538V160.451H221.524ZM208.938 168.713C212.577 167.658 214.73 165.681 215.064 163.264H209.606V161.664H217.2C217.209 165.883 214.449 168.897 209.747 170.26L208.938 168.713ZM211.312 176.025V170.734H213.298V174.443H222.122V176.025H211.312ZM237.854 160.451V172.193H235.903V168.045H233.653V166.428H235.903V164.916H233.653V163.334H235.903V160.451H237.854ZM224.565 168.484C225.119 168.484 225.726 168.484 226.358 168.476V163.211H224.97V161.646H233.425V163.211H232.019V168.291C232.616 168.247 233.196 168.194 233.759 168.133L233.847 169.557C230.832 170.04 227.308 170.102 224.776 170.102L224.565 168.484ZM227.413 176.025V171.279H229.382V174.443H238.259V176.025H227.413ZM228.257 168.449C228.872 168.44 229.505 168.414 230.138 168.388V163.211H228.257V168.449ZM252.55 160.451V166.779H254.993V168.396H252.55V176.342H250.616V160.451H252.55ZM240.017 164.459V162.895H243.778V160.68H245.729V162.895H249.386V164.459H240.017ZM240.755 169.24C240.737 167.043 242.442 165.487 244.763 165.496C247.048 165.487 248.744 167.043 248.753 169.24C248.744 171.429 247.048 172.967 244.763 172.967C242.442 172.967 240.737 171.429 240.755 169.24ZM242.618 169.24C242.609 170.532 243.515 171.358 244.763 171.35C245.984 171.358 246.872 170.532 246.89 169.24C246.872 167.948 245.984 167.096 244.763 167.096C243.515 167.096 242.609 167.948 242.618 169.24ZM269.372 160.451V176.342H267.509V160.451H269.372ZM255.538 171.596C258.825 169.653 260.337 167.166 260.636 163.967H256.347V162.385H262.569C262.569 163.923 262.376 165.364 261.945 166.709H264.151V160.838H265.997V175.586H264.151V168.273H261.304C260.381 170.093 258.887 171.684 256.646 172.984L255.538 171.596Z" fill="#2FB2FF"/>
<g clip-path="url(#clip0_3254_13142)">
<path d="M136.944 78.9873C140.925 78.9873 144.528 79.9301 147.672 81.791C150.806 83.652 153.332 86.2177 155.176 89.4209C157.024 92.6288 157.96 96.3036 157.96 100.292C157.96 104.28 157.104 107.916 155.412 111.091C153.715 114.275 151.365 116.836 148.424 118.697C145.469 120.568 142.088 121.52 138.382 121.52C135.384 121.52 132.585 120.882 130.061 119.625C128.467 118.83 127.007 117.845 125.697 116.679V133.28C125.697 134.651 125.248 135.818 124.359 136.746C123.461 137.684 122.226 138.159 120.851 138.159C119.475 138.159 118.312 137.688 117.39 136.76C116.468 135.832 116 134.66 116 133.275V100.287C116.047 96.2748 116.998 92.629 118.813 89.4258C120.634 86.2178 123.149 83.652 126.283 81.791C129.427 79.93 132.964 78.9874 136.944 78.9873ZM185.522 78.9824C189.546 78.9824 193.177 79.9013 196.316 81.71V81.7139C199.46 83.5273 201.961 86.0601 203.763 89.249C205.555 92.4332 206.468 96.1978 206.468 100.291C206.468 104.384 205.569 108.073 203.801 111.253C202.028 114.442 199.532 116.979 196.388 118.792C193.248 120.601 189.598 121.52 185.522 121.52C181.447 121.519 177.793 120.601 174.658 118.792C171.514 116.983 169.008 114.447 167.212 111.258C165.42 108.078 164.507 104.432 164.507 100.286C164.507 96.1406 165.415 92.4235 167.212 89.2441C169.009 86.0552 171.514 83.5234 174.658 81.71C177.797 79.9013 181.499 78.9825 185.522 78.9824ZM250.059 82.5371C251.433 82.5371 252.634 83.0441 253.622 84.0371C254.614 85.0342 255.114 86.234 255.114 87.6201C255.114 87.6631 255.112 87.7064 255.111 87.749V116.222C255.112 116.264 255.114 116.307 255.114 116.351C255.114 117.737 254.61 118.942 253.622 119.936C252.63 120.933 251.437 121.433 250.062 121.433C248.688 121.433 247.487 120.925 246.499 119.932C245.507 118.934 245.008 117.725 245.008 116.347C245.008 116.325 245.01 116.304 245.01 116.282H245.005V87.5127H245.01C245.034 86.1776 245.532 85.0052 246.495 84.0371C247.487 83.04 248.684 82.5372 250.059 82.5371ZM221.455 66.6885C222.831 66.6885 223.98 67.1455 224.878 68.0498C225.776 68.954 226.23 70.1151 226.23 71.4951V80.7246H231.156C232.461 80.7246 233.554 81.1238 234.4 81.9092C235.27 82.7183 235.714 83.7945 235.714 85.0986C235.714 86.2931 235.261 87.345 234.4 88.1445C233.554 88.9299 232.466 89.3301 231.156 89.3301H226.23V106.008C226.231 107.669 226.661 109.006 227.545 110.101C228.368 111.119 229.336 111.614 230.509 111.614H232.953L232.958 111.619C234.149 111.619 235.213 112.105 236.031 113.028C236.83 113.928 237.232 115.023 237.232 116.427C237.232 117.831 236.678 119.045 235.629 119.939C234.622 120.796 233.336 121.233 231.809 121.233H230.519C227.904 121.233 225.511 120.548 223.412 119.201C221.327 117.864 219.663 116.022 218.472 113.723C217.285 111.438 216.685 108.844 216.685 106.008V89.3301H214.562C213.252 89.3301 212.16 88.9298 211.313 88.1445C210.453 87.345 209.999 86.2932 209.999 85.0986C209.999 83.7945 210.444 82.7183 211.313 81.9092C212.155 81.124 213.247 80.7247 214.557 80.7246H216.68V71.4951C216.68 70.1102 217.134 68.9541 218.032 68.0498C218.931 67.1455 220.079 66.6885 221.455 66.6885ZM136.944 87.874C134.779 87.8741 132.798 88.4114 131.054 89.4727C129.304 90.534 127.91 92.0147 126.917 93.8662C125.915 95.732 125.408 97.9357 125.408 100.282C125.408 102.629 125.915 104.766 126.917 106.627C127.915 108.483 129.304 109.958 131.054 111.024C132.798 112.086 134.732 112.624 136.944 112.624C139.157 112.624 141.153 112.086 142.869 111.024C144.599 109.958 145.994 108.473 147.015 106.617C148.036 104.751 148.557 102.672 148.557 100.282C148.557 97.8929 148.036 95.737 147.015 93.876C145.994 92.0199 144.599 90.5396 142.869 89.4688C141.148 88.4121 139.152 87.874 136.944 87.874ZM185.522 87.8779C183.258 87.878 181.239 88.4068 179.519 89.4443C177.798 90.4819 176.417 91.9474 175.424 93.7988C174.422 95.6645 173.911 97.8493 173.911 100.286C173.911 102.723 174.417 104.893 175.419 106.73C176.412 108.558 177.793 110.015 179.519 111.058C181.239 112.095 183.258 112.623 185.522 112.623H185.527C187.792 112.623 189.811 112.095 191.532 111.058C193.253 110.015 194.62 108.563 195.589 106.74C196.567 104.903 197.063 102.732 197.063 100.286C197.063 97.8398 196.567 95.6548 195.584 93.7891C194.61 91.9473 193.248 90.4819 191.527 89.4443C189.806 88.4067 187.787 87.8779 185.522 87.8779ZM250.06 66.3135C251.672 66.3135 253.081 66.9083 254.239 68.0742C255.402 69.2451 255.988 70.6545 255.988 72.2822C255.988 73.9098 255.397 75.3232 254.239 76.4893C253.076 77.6601 251.672 78.2509 250.06 78.251C248.447 78.2509 247.043 77.6504 245.885 76.4844C244.722 75.3136 244.136 73.8954 244.136 72.2773C244.136 70.6591 244.722 69.2403 245.88 68.0742C247.043 66.9035 248.448 66.3135 250.06 66.3135Z" fill="#2FB2FF"/>
</g>
<defs>
<clipPath id="clip0_3254_13142">
<rect width="140" height="74" fill="white" transform="translate(116 64)"/>
</clipPath>
</defs>
</svg>
