<svg width="24" height="24" viewBox="0 0 24 24" fill="none" xmlns="http://www.w3.org/2000/svg">
<path fill-rule="evenodd" clip-rule="evenodd" d="M1.8128 3.99526C3.032 2.70765 4.7728 2 6.816 2C8.6784 2 10.6672 2.8461 12 4.50138C13.3248 2.84764 15.3056 2 17.184 2C19.2224 2 20.96 2.70457 22.1824 3.9891C23.392 5.26287 24 7.00737 24 8.94263C24 12.2747 22.2192 14.9561 19.9648 17.0406C17.7168 19.1204 14.8928 20.7065 12.552 21.871C12.3806 21.9563 12.1902 22.0005 11.9972 22C11.8042 21.9995 11.6141 21.9542 11.4432 21.8679C9.1024 20.6911 6.2784 19.1174 4.0304 17.0483C1.776 14.9699 0 12.2978 0 8.94416C0 7.01352 0.6048 5.26902 1.8128 3.99526ZM3.5872 5.549C2.8592 6.31818 2.4 7.46734 2.4 8.94416C2.4 11.4425 3.7056 13.5531 5.6912 15.3807C7.5248 17.0698 9.8512 18.4343 12.0032 19.5419C14.1392 18.4497 16.4672 17.0744 18.3024 15.3776C20.2912 13.5362 21.6 11.4163 21.6 8.94416C21.6 7.46272 21.1392 6.31357 20.4096 5.54439C19.6928 4.79213 18.624 4.30908 17.184 4.30908C15.6224 4.30908 13.8352 5.27517 13.1408 7.30889C13.0623 7.54028 12.9096 7.74187 12.7047 7.88482C12.4998 8.02776 12.2532 8.10474 12 8.10474C11.7468 8.10474 11.5002 8.02776 11.2953 7.88482C11.0904 7.74187 10.9377 7.54028 10.8592 7.30889C10.1664 5.27825 8.36 4.30908 6.816 4.30908C5.3712 4.30908 4.304 4.79213 3.5872 5.549Z" fill="#303030"/>
</svg>
