<svg width="375" height="370" viewBox="0 0 375 370" fill="none" xmlns="http://www.w3.org/2000/svg">
<g filter="url(#filter0_d_6017_13949)">
<rect x="49" y="30.248" width="271.317" height="80" rx="12" transform="rotate(-3.01033 49 30.248)" fill="#303030"/>
<path d="M92.5333 52.5556C94.3008 49.9996 98.1685 50.3003 99.5197 53.0988L102.287 58.83C102.782 59.8552 103.685 60.625 104.775 60.9515L110.872 62.7765C113.85 63.6677 114.759 67.439 112.515 69.5888L107.919 73.9916C107.097 74.7792 106.644 75.876 106.671 77.014L106.819 83.3766C106.891 86.4834 103.586 88.5134 100.848 87.0436L95.24 84.0334C94.2371 83.495 93.0539 83.403 91.9798 83.7799L85.9744 85.8872C83.0421 86.9161 80.0899 84.3994 80.6416 81.3412L81.7717 75.078C81.9738 73.9577 81.6957 72.8041 81.0053 71.899L77.1454 66.8387C75.2608 64.3679 76.7419 60.7824 79.821 60.3622L86.1268 59.5014C87.2547 59.3475 88.266 58.7265 88.9135 57.7902L92.5333 52.5556Z" fill="#242424"/>
<path d="M88.4858 51.2267C90.2501 48.2574 94.6538 48.5998 95.938 51.8061L98.4536 58.0884C98.5965 58.4451 98.9055 58.7087 99.2804 58.7933L105.881 60.2831C109.251 61.0433 110.286 65.337 107.633 67.5491L102.435 71.8829C102.14 72.129 101.985 72.5044 102.02 72.8869L102.644 79.6255C102.962 83.0648 99.1987 85.3756 96.2752 83.5361L90.547 79.9328C90.2219 79.7283 89.8172 79.6968 89.4643 79.8486L83.2481 82.5232C80.0754 83.8886 76.7142 81.0239 77.5599 77.6751L79.218 71.114C79.3121 70.7415 79.2166 70.3465 78.9632 70.0578L74.4983 64.9728C72.2191 62.3772 73.9054 58.295 77.3519 58.0648L84.1035 57.6132C84.487 57.5876 84.833 57.375 85.0293 57.0446L88.4858 51.2267Z" fill="#2FB2FF" stroke="#FAFAFC" stroke-width="3"/>
<path d="M84.9615 65.9667C84.7784 67.0867 84.8603 69.6504 86.6531 70.9449" stroke="#FAFAFC" stroke-width="3" stroke-linecap="round"/>
<circle cx="90.2012" cy="73.3799" r="1.20041" transform="rotate(-3.01033 90.2012 73.3799)" fill="#FAFAFC"/>
<path d="M137.905 59.4776L138.046 62.1536L139.766 62.0632L139.831 63.3056L138.111 63.396L138.248 65.9901L136.732 66.0698L136.39 59.5573L137.905 59.4776ZM128.434 65.5205C131.49 64.7916 132.887 63.3764 132.982 61.8038L128.839 62.0217L128.775 60.8203L134.619 60.513C134.773 63.7017 132.814 65.7625 129.14 66.7018L128.434 65.5205ZM130.518 72.0919L130.246 66.9175L138.315 66.4931L138.374 67.6127L131.834 67.9566L131.882 68.8577L138.298 68.5202L138.356 69.6125L131.939 69.9499L131.988 70.8783L138.814 70.5193L138.874 71.6525L130.518 72.0919ZM151.839 65.1385L151.903 66.3536L140.653 66.9452L140.589 65.7301L151.839 65.1385ZM141.566 62.1875C141.484 60.6243 143.189 59.59 145.886 59.455C148.575 59.3067 150.379 60.1565 150.468 61.7194C150.544 63.2899 148.839 64.3378 146.15 64.4793C143.453 64.6211 141.649 63.7576 141.566 62.1875ZM142.282 71.3775L142.093 67.7867L143.609 67.707L143.733 70.069L150.805 69.6971L150.87 70.9258L142.282 71.3775ZM143.15 62.1043C143.18 62.9446 144.289 63.3381 146.084 63.2369C147.887 63.1489 148.942 62.6416 148.898 61.802C148.855 60.9896 147.752 60.5753 145.949 60.6701C144.154 60.7645 143.093 61.2926 143.15 62.1043ZM165.565 58.5159L165.608 59.3488C165.646 60.2024 165.705 61.3151 165.515 62.7764L167.181 62.6888L167.245 63.9175L162.316 64.1767L162.408 65.9243L160.906 66.0033L160.815 64.2557L155.968 64.5106L155.903 63.2818L163.999 62.8561C164.178 61.5666 164.161 60.6023 164.127 59.81L157.136 60.1776L157.072 58.9625L165.565 58.5159ZM157.017 69.6305C159.502 69.2261 160.977 67.9984 160.923 66.8376L160.904 66.4689L162.446 66.3878L162.466 66.7564C162.537 67.978 164.103 68.9841 166.656 69.1236L166.199 70.3114C164.138 70.1802 162.569 69.5097 161.774 68.4357C161.08 69.5606 159.599 70.4257 157.611 70.763L157.017 69.6305ZM179.516 66.8592L179.582 68.1153L168.305 68.7083L168.239 67.4523L179.516 66.8592ZM168.566 64.2999C171.037 63.7797 172.791 61.9898 172.689 60.1812L172.679 59.99L168.802 60.1939L168.738 58.9788L178.104 58.4863L178.168 59.7014L174.277 59.906L174.287 60.0972C174.382 61.9062 176.311 63.4545 178.899 63.7154L178.361 64.9485C176.26 64.6825 174.495 63.6595 173.608 62.1591C172.898 63.764 171.266 64.9999 169.231 65.4971L168.566 64.2999ZM191.378 62.2788L191.438 63.4256L180.161 64.0187L180.101 62.8718L191.378 62.2788ZM181.566 65.752L181.51 64.687L190.112 64.2347L190.26 67.0472L183.187 67.4191L183.233 68.2793L190.673 67.888L190.729 68.9393L181.772 69.4103L181.62 66.5158L188.706 66.1432L188.666 65.3786L181.566 65.752ZM181.268 58.5252L181.213 57.4739L189.705 57.0273L189.852 59.8126L182.902 60.178L182.945 60.9835L190.113 60.6066L190.167 61.6442L181.497 62.1002L181.349 59.274L188.285 58.9092L188.245 58.1583L181.268 58.5252ZM205.57 55.9329L206.061 65.2716L204.532 65.352L204.475 64.2734L202.059 64.4005L202.003 63.3356L204.419 63.2085L204.041 56.0133L205.57 55.9329ZM195.458 62.0231C197.731 61.8899 200.795 61.7083 203.398 61.2359L203.538 62.3239C202.53 62.548 201.484 62.7125 200.443 62.8425L200.568 65.2182L199.053 65.2979L198.932 63.0042C197.781 63.1126 196.682 63.1772 195.713 63.2282L195.458 62.0231ZM196.247 59.0655C196.179 57.7617 197.388 56.8082 199.218 56.7188C201.013 56.6175 202.322 57.4386 202.405 58.7417C202.461 60.0668 201.242 60.9728 199.447 61.0741C197.617 61.1635 196.317 60.3899 196.247 59.0655ZM197.44 68.4768L197.249 64.8314L198.764 64.7517L198.891 67.1683L206.428 66.772L206.492 68.0008L197.44 68.4768ZM197.681 58.9901C197.716 59.6591 198.399 60.0134 199.389 59.9682C200.33 59.9118 200.986 59.4872 200.957 58.8178C200.915 58.1492 200.218 57.7819 199.277 57.8383C198.287 57.8835 197.646 58.3211 197.681 58.9901ZM216.97 55.3197L217.228 60.2348L219.126 60.135L219.192 61.3911L217.294 61.4909L217.619 67.6621L216.117 67.741L215.468 55.3987L216.97 55.3197ZM207.399 58.9446L207.335 57.7294L210.257 57.5758L210.166 55.8555L211.682 55.7758L211.772 57.4961L214.612 57.3467L214.676 58.5619L207.399 58.9446ZM208.167 62.628C208.064 60.9221 209.325 59.6442 211.127 59.5562C212.902 59.4561 214.283 60.5951 214.38 62.3013C214.462 64.0015 213.207 65.2654 211.433 65.3588C209.63 65.4535 208.243 64.3285 208.167 62.628ZM209.615 62.5519C209.661 63.5558 210.398 64.1605 211.367 64.1027C212.316 64.0596 212.971 63.3817 212.932 62.3774C212.866 61.3747 212.142 60.7487 211.193 60.7986C210.223 60.8496 209.555 61.5488 209.615 62.5519ZM229.564 58.1623L229.627 59.3637L221.08 59.8132L220.857 55.5671L222.359 55.4881L222.519 58.5327L229.564 58.1623ZM219.758 62.525L219.695 61.3236L230.972 60.7305L231.036 61.932L219.758 62.525ZM221.358 67.1779L221.167 63.5462L222.683 63.4665L222.809 65.8694L230.032 65.4896L230.096 66.7184L221.358 67.1779ZM240.719 55.2482L240.784 56.477L239.897 56.5236L240.082 60.0529C240.449 60.0062 240.809 59.9463 241.141 59.8809L241.269 61.0105C239.356 61.4739 236.819 61.6552 235.242 61.7381L235.011 60.477L236.117 60.4189L235.924 56.7326L235.05 56.7785L234.985 55.5497L240.719 55.2482ZM237.662 66.3616L237.457 62.4705L238.973 62.3908L239.113 65.0531L246.253 64.6776L246.318 65.9064L237.662 66.3616ZM237.509 60.3252C237.904 60.2975 238.307 60.2627 238.708 60.221L238.518 56.5961L237.316 56.6593L237.509 60.3252ZM241.81 62.9672L241.353 54.2839L242.773 54.2092L242.951 57.5952L244.084 57.5356L243.894 53.9175L245.341 53.8414L245.832 63.1801L244.385 63.2562L244.15 58.7916L243.017 58.8512L243.23 62.8925L241.81 62.9672ZM258.393 58.0974L258.457 59.2989L247.193 59.8912L247.13 58.6897L258.393 58.0974ZM248.622 61.8149L248.562 60.668L257.081 60.22L257.244 63.3192L250.226 63.6883L250.276 64.6303L257.635 64.2433L257.697 65.4312L248.85 65.8964L248.681 62.6743L255.699 62.3053L255.653 61.4451L248.622 61.8149ZM248.522 57.8225L248.32 53.986L256.703 53.5451L256.767 54.7602L249.899 55.1214L249.974 56.5413L256.951 56.1744L257.014 57.3759L248.522 57.8225ZM269.22 52.572L269.869 64.928L268.34 65.0084L267.691 52.6524L269.22 52.572ZM259.625 58.3475C259.478 55.6855 260.748 53.9211 262.618 53.8227C264.468 53.7255 265.922 55.3466 266.069 58.0086C266.203 60.6918 264.927 62.4497 263.077 62.547C261.206 62.6454 259.759 61.0307 259.625 58.3475ZM261.086 58.2707C261.186 60.1684 261.96 61.2298 263.005 61.1817C264.042 61.1203 264.694 59.9839 264.595 58.0862C264.496 56.202 263.728 55.1335 262.69 55.188C261.645 55.243 260.987 56.3866 261.086 58.2707ZM286.135 61.307L286.201 62.5495L274.923 63.1425L274.858 61.9001L279.718 61.6445L279.577 58.9548L275.959 59.1451L275.646 53.1924L284.384 52.7329L284.697 58.6856L281.079 58.8759L281.22 61.5655L286.135 61.307ZM277.385 57.879L283.133 57.5768L282.946 54.027L277.198 54.3293L277.385 57.879ZM289.856 52.3904C290.969 52.3318 291.923 52.9046 292.533 53.9609L295.42 53.8091L295.283 51.2013L296.785 51.1224L297.435 63.4783L295.933 63.5573L295.688 58.888L292.909 59.0341C292.434 60.2912 291.502 61.0522 290.315 61.1146C288.458 61.2123 287.052 59.5954 286.917 56.9122C286.771 54.2503 287.999 52.488 289.856 52.3904ZM288.378 56.8354C288.471 58.7335 289.225 59.796 290.243 59.7493C291.266 59.6887 291.898 58.5533 291.805 56.6552C291.699 54.7714 290.952 53.7018 289.928 53.7557C288.91 53.8091 288.272 54.9517 288.378 56.8354ZM293.028 55.1807C293.14 55.6061 293.212 56.0746 293.239 56.5798C293.261 57.0031 293.248 57.4076 293.199 57.7867L295.623 57.6592L295.486 55.0515L293.028 55.1807Z" fill="#94D6FD"/>
</g>
<g filter="url(#filter1_d_6017_13949)">
<rect x="47" y="141.139" width="283.53" height="80" rx="12" transform="rotate(2.56955 47 141.139)" fill="#2FB2FF"/>
<path d="M127.517 182.189C127.45 183.534 128.395 184.877 130.311 185.503L129.561 186.647C128.158 186.194 127.192 185.322 126.679 184.238C126.087 185.382 125.015 186.237 123.528 186.595L122.857 185.388C124.828 184.929 125.935 183.596 126.001 182.121L126.002 182.094L123.421 181.978L123.475 180.776L126.056 180.892L126.117 179.526L127.647 179.595L127.586 180.96L130.153 181.076L130.099 182.278L127.518 182.162L127.517 182.189ZM124.407 191.725L124.605 187.314L132.581 187.672L132.383 192.083L124.407 191.725ZM125.964 190.563L130.936 190.786L131.025 188.806L126.053 188.583L125.964 190.563ZM131.088 187.085L131.414 179.818L132.93 179.886L132.797 182.864L134.518 182.941L134.461 184.198L132.74 184.12L132.604 187.153L131.088 187.085ZM138.613 181.045C139.726 181.095 140.62 181.757 141.124 182.868L144.013 182.998L144.13 180.389L145.632 180.456L145.078 192.817L143.575 192.75L143.785 188.079L141.005 187.954C140.411 189.159 139.409 189.826 138.221 189.772C136.363 189.689 135.121 187.943 135.248 185.259C135.361 182.596 136.755 180.961 138.613 181.045ZM136.71 185.325C136.618 187.223 137.265 188.354 138.282 188.406C139.307 188.446 140.046 187.377 140.138 185.479C140.216 183.594 139.576 182.456 138.551 182.411C137.534 182.365 136.788 183.44 136.71 185.325ZM141.499 184.13C141.568 184.565 141.595 185.038 141.572 185.543C141.553 185.967 141.501 186.368 141.416 186.741L143.84 186.849L143.957 184.241L141.499 184.13ZM151.635 184.243C151.542 186.148 152.592 188.371 154.498 189.367L153.597 190.531C152.233 189.813 151.261 188.441 150.778 186.873C150.142 188.542 148.998 189.941 147.546 190.56L146.712 189.332C148.721 188.485 150.019 186.23 150.119 184.175L150.165 183.137L147.474 183.016L147.531 181.76L154.319 182.064L154.263 183.321L151.681 183.205L151.635 184.243ZM154.967 193.247L155.521 180.9L157.037 180.968L156.821 185.776L158.72 185.861L158.663 187.131L156.764 187.046L156.483 193.315L154.967 193.247ZM170.471 187.182L170.419 188.33L159.138 187.823L159.189 186.676L170.471 187.182ZM160.368 189.685L160.416 188.62L169.021 189.006L168.894 191.819L161.819 191.502L161.781 192.362L169.224 192.696L169.177 193.748L160.218 193.346L160.347 190.45L167.436 190.769L167.47 190.004L160.368 189.685ZM160.774 182.464L160.822 181.412L169.317 181.793L169.192 184.579L162.24 184.267L162.204 185.073L169.374 185.395L169.328 186.433L160.655 186.044L160.782 183.217L167.72 183.528L167.754 182.777L160.774 182.464ZM185.711 191.876L185.656 193.119L174.374 192.613L174.43 191.37L179.292 191.588L179.413 188.897L175.793 188.735L176.061 182.78L184.802 183.172L184.535 189.127L180.915 188.965L180.794 191.655L185.711 191.876ZM177.335 187.614L183.086 187.872L183.245 184.32L177.495 184.062L177.335 187.614ZM194.195 183.375L194.14 184.59L191.545 184.474C191.501 185.923 192.504 187.364 194.425 187.997L193.607 189.151C192.199 188.664 191.208 187.723 190.699 186.557C190.084 187.761 188.989 188.684 187.493 189.082L186.781 187.859C188.781 187.368 189.912 185.94 190.016 184.405L187.352 184.286L187.407 183.07L194.195 183.375ZM188.518 194.602L188.74 189.644L190.243 189.712L190.186 190.982L195.335 191.213L195.392 189.943L196.908 190.011L196.685 194.969L188.518 194.602ZM190.075 193.441L195.224 193.672L195.282 192.388L190.133 192.157L190.075 193.441ZM195.403 189.396L195.703 182.704L197.233 182.772L196.932 189.465L195.403 189.396ZM208.706 183.287L208.485 188.204L210.383 188.289L210.327 189.546L208.428 189.46L208.151 195.634L206.649 195.567L207.203 183.22L208.706 183.287ZM198.828 185.964L198.882 184.748L201.805 184.88L201.882 183.159L203.398 183.227L203.321 184.948L206.162 185.075L206.107 186.291L198.828 185.964ZM199.234 189.705C199.297 187.997 200.677 186.848 202.479 186.935C204.255 187.008 205.519 188.276 205.449 189.984C205.366 191.684 203.994 192.82 202.219 192.74C200.416 192.659 199.144 191.405 199.234 189.705ZM200.682 189.77C200.63 190.773 201.305 191.447 202.275 191.484C203.224 191.533 203.942 190.922 204.001 189.919C204.033 188.914 203.373 188.221 202.423 188.178C201.454 188.135 200.72 188.766 200.682 189.77ZM221.152 184.981L221.099 186.17C221.016 187.706 220.939 189.42 220.345 191.98L218.823 191.747C219.415 189.365 219.494 187.61 219.568 186.128L212.192 185.797L212.247 184.582L221.152 184.981ZM210.641 194.144L210.696 192.902L214.848 193.088L215.041 188.799L216.543 188.867L216.351 193.155L221.951 193.407L221.895 194.65L210.641 194.144ZM236.515 192.432L236.314 196.898L234.798 196.83L234.945 193.566L228.048 193.256L228.102 192.054L236.515 192.432ZM226.528 187.768C226.607 186.02 228.063 184.826 229.927 184.924C230.945 184.962 231.815 185.385 232.367 186.06L235.276 186.19L235.353 184.483L236.869 184.551L236.541 191.844L235.025 191.776L235.099 190.137L232.203 190.007C231.587 190.637 230.681 190.993 229.657 190.947C227.792 190.863 226.449 189.544 226.528 187.768ZM227.976 187.833C227.928 188.905 228.656 189.609 229.714 189.663C230.725 189.702 231.527 189.067 231.582 187.995C231.621 186.964 230.88 186.246 229.869 186.208C228.811 186.153 228.022 186.802 227.976 187.833ZM232.9 188.807L235.154 188.908L235.22 187.433L232.973 187.332C233.018 187.567 233.041 187.807 233.03 188.06C233.018 188.32 232.973 188.571 232.9 188.807ZM248.356 185.039L248.231 187.825L249.966 187.903L249.911 189.132L248.176 189.055L248.054 191.773L246.538 191.704L246.84 184.971L248.356 185.039ZM238.534 186.788L238.586 185.627L241.495 185.758L241.544 184.665L243.06 184.733L243.011 185.826L245.906 185.956L245.854 187.116L238.534 186.788ZM239.054 189.22C239.109 187.991 240.353 187.26 242.177 187.335C244.007 187.424 245.153 188.262 245.105 189.492C245.041 190.755 243.826 191.46 241.995 191.377C240.172 191.296 238.997 190.483 239.054 189.22ZM239.908 193.063L239.958 191.957L248.03 192.319L247.896 195.296L241.34 195.002L241.301 195.876L248.239 196.188L248.188 197.321L239.748 196.942L239.885 193.883L246.427 194.177L246.464 193.357L239.908 193.063ZM240.529 189.286C240.495 189.894 241.089 190.235 242.044 190.285C243.001 190.321 243.63 190.034 243.657 189.427C243.683 188.839 243.084 188.463 242.128 188.427C241.172 188.378 240.549 188.699 240.529 189.286ZM256.309 185.615C259.122 185.748 260.721 186.566 260.667 187.932C260.598 189.311 258.932 189.982 256.119 189.863C253.312 189.73 251.7 188.912 251.762 187.532C251.823 186.166 253.502 185.496 256.309 185.615ZM250.421 191.482L250.476 190.266L261.73 190.771L261.675 191.987L250.421 191.482ZM251.658 193.494L251.709 192.374L260.231 192.757L260.096 195.775L253.075 195.46L253.034 196.375L260.396 196.706L260.344 197.867L251.494 197.47L251.635 194.315L258.655 194.63L258.692 193.81L251.658 193.494ZM253.36 187.604C253.322 188.286 254.291 188.645 256.169 188.729C258.075 188.814 259.065 188.544 259.096 187.861C259.125 187.226 258.164 186.82 256.259 186.735C254.381 186.651 253.381 186.968 253.36 187.604ZM277.397 191.146L277.341 192.389L275.511 192.307L275.228 198.617L273.712 198.549L274.265 186.229L275.781 186.297L275.567 191.064L277.397 191.146ZM266.132 195.157L266.494 187.085L267.996 187.152L267.69 193.968C269.337 194.014 271.092 193.949 272.974 193.644L273.08 194.935C270.979 195.258 269 195.279 267.17 195.203L266.132 195.157ZM288.073 190.818L288.018 192.047L279.386 191.659L279.592 187.057L281.108 187.125L280.957 190.498L288.073 190.818ZM277.84 194.396L277.895 193.153L289.177 193.659L289.121 194.902L284.191 194.681L283.995 199.038L282.465 198.969L282.661 194.612L277.84 194.396ZM296.517 188.377L296.44 190.085L299.008 190.2L299.136 187.345L300.638 187.413L300.084 199.773L298.581 199.706L298.803 194.775L296.235 194.66L296.151 196.531L290.332 196.27L290.698 188.116L296.517 188.377ZM291.902 195.136L294.716 195.263L294.975 189.499L292.161 189.373L291.902 195.136ZM296.289 193.445L298.857 193.56L298.953 191.429L296.385 191.314L296.289 193.445ZM304.321 197.76L303.002 201.533L301.704 201.475L302.586 197.682L304.321 197.76Z" fill="#FAFAFC"/>
<rect x="-1.5098" y="-1.49115" width="26.7768" height="37.4947" rx="6.52465" transform="matrix(0.999983 -0.00587887 0.00655374 0.999979 74.8302 166.892)" fill="#20A1EE" stroke="#20A1EE" stroke-width="3"/>
<rect x="-1.28848" y="-1.68608" width="26.7768" height="37.4947" rx="6.52465" transform="matrix(0.99114 0.132824 -0.132155 0.991229 83.8182 166.339)" fill="#20A1EE" stroke="#20A1EE" stroke-width="3"/>
<rect width="4.25239" height="17.4707" transform="translate(93.1325 175.982) rotate(7.62944)" fill="#20A1EE"/>
<rect opacity="0.6" x="92.8249" y="178.087" width="4.25239" height="6.73722" transform="rotate(7.62944 92.8249 178.087)" fill="#20A1EE"/>
<circle cx="94.9322" cy="178.369" r="2.12619" transform="rotate(7.62944 94.9322 178.369)" fill="#20A1EE"/>
<circle cx="94.0548" cy="184.919" r="2.12619" transform="rotate(7.62944 94.0548 184.919)" fill="#20A1EE"/>
<circle cx="93.177" cy="191.47" r="2.12619" transform="rotate(7.62944 93.177 191.47)" fill="#20A1EE"/>
<rect x="-1.5098" y="-1.49115" width="26.7768" height="37.4947" rx="6.52465" transform="matrix(0.999983 -0.00587887 0.00655374 0.999979 74.919 163.809)" fill="#2FB2FF" stroke="#FAFAFC" stroke-width="3"/>
<rect x="-1.28848" y="-1.68608" width="26.7768" height="37.4947" rx="6.52465" transform="matrix(0.99114 0.132824 -0.132155 0.991229 83.9069 163.257)" fill="#2FB2FF" stroke="#FAFAFC" stroke-width="3"/>
<rect opacity="0.6" x="92.9141" y="175.005" width="4.25239" height="6.73722" transform="rotate(7.62944 92.9141 175.005)" fill="#C5E9FF"/>
<circle cx="95.0215" cy="175.287" r="2.12619" transform="rotate(7.62944 95.0215 175.287)" fill="#FAFAFC"/>
<circle cx="94.1444" cy="181.837" r="2.12619" transform="rotate(7.62944 94.1444 181.837)" fill="#FAFAFC"/>
<circle cx="93.267" cy="188.388" r="2.12619" transform="rotate(7.62944 93.267 188.388)" fill="#C5E9FF"/>
</g>
<g filter="url(#filter2_d_6017_13949)">
<rect x="49" y="275" width="272" height="80" rx="12" transform="rotate(-2.15535 49 275)" fill="#EEEFF3"/>
<path d="M138.348 311.846L138.394 313.062L133.626 313.241L133.706 315.373L132.203 315.429L132.123 313.298L127.109 313.487L127.063 312.271L138.348 311.846ZM128.644 317.93L128.516 314.528L130.019 314.472L130.101 316.644L137.273 316.374L137.32 317.604L128.644 317.93ZM128.502 311.245L128.313 306.218L129.816 306.161L129.868 307.555L135.196 307.354L135.144 305.96L136.647 305.904L136.836 310.932L128.502 311.245ZM129.96 309.986L135.288 309.786L135.239 308.488L129.911 308.688L129.96 309.986ZM143.459 307.7C143.497 308.882 144.64 309.981 146.595 310.318L145.969 311.491C144.488 311.225 143.402 310.527 142.791 309.565C142.278 310.665 141.236 311.525 139.747 311.944L139.048 310.807C140.963 310.263 141.991 309.034 141.943 307.757L141.938 307.634L139.356 307.731L139.31 306.515L141.892 306.418L141.849 305.257L143.379 305.199L143.423 306.36L145.991 306.264L146.037 307.48L143.455 307.577L143.459 307.7ZM141.432 313.44L141.387 312.265L149.53 311.959L149.65 315.142L143.037 315.391L143.073 316.347L150.082 316.084L150.126 317.258L141.601 317.579L141.479 314.328L148.091 314.079L148.058 313.191L141.432 313.44ZM145.765 309.337L145.719 308.121L147.864 308.04L147.753 305.089L149.269 305.032L149.512 311.467L147.995 311.524L147.91 309.256L145.765 309.337ZM161.286 305.866L161.319 306.74C161.36 307.84 161.419 309.398 161.157 311.535L159.65 311.468C159.88 309.585 159.862 308.197 159.829 307.138L154.979 307.321L154.933 306.105L161.286 305.866ZM154.55 313.384C155.281 313.35 156.093 313.313 156.94 313.26L156.801 309.565L158.303 309.508L158.441 313.156C159.696 313.054 160.983 312.916 162.16 312.729L162.284 313.859C159.752 314.372 156.926 314.526 154.746 314.595L154.55 313.384ZM162.959 316.885L162.494 304.534L164.025 304.477L164.214 309.504L166.004 309.437L166.052 310.721L164.262 310.789L164.489 316.827L162.959 316.885ZM176.771 303.997L177.048 311.334L175.531 311.391L175.417 308.371L173.313 308.451L173.267 307.207L175.371 307.128L175.255 304.054L176.771 303.997ZM166.618 310.495C168.58 309.737 169.563 308.038 169.501 306.405L169.498 306.309L166.929 306.406L166.883 305.176L173.55 304.925L173.596 306.155L171.042 306.251L171.045 306.333C171.101 307.836 172.156 309.315 174.093 309.885L173.373 311.116C171.982 310.703 170.977 309.797 170.386 308.656C169.896 309.988 168.905 311.093 167.456 311.667L166.618 310.495ZM168.773 314.313C168.703 312.831 170.276 311.903 172.879 311.805C175.495 311.707 177.126 312.514 177.189 313.996C177.238 315.479 175.672 316.4 173.056 316.505C170.453 316.596 168.815 315.796 168.773 314.313ZM170.276 314.256C170.298 315.022 171.297 315.401 173.011 315.33C174.74 315.272 175.701 314.818 175.672 314.053C175.643 313.281 174.651 312.901 172.922 312.966C171.208 313.031 170.24 313.485 170.276 314.256ZM184.143 303.911C186.957 303.812 188.618 304.495 188.676 305.861C188.721 307.241 187.117 308.047 184.302 308.16C181.495 308.259 179.82 307.576 179.768 306.196C179.717 304.83 181.335 304.024 184.143 303.911ZM178.758 310.243L178.712 309.027L189.97 308.604L190.015 309.819L178.758 310.243ZM180.156 312.147L180.114 311.027L188.64 310.706L188.753 313.725L181.731 313.989L181.765 314.905L189.129 314.628L189.173 315.789L180.32 316.122L180.201 312.966L187.223 312.702L187.193 311.882L180.156 312.147ZM181.367 306.136C181.386 306.82 182.381 307.097 184.26 307.026C186.166 306.954 187.131 306.603 187.105 305.92C187.081 305.285 186.091 304.96 184.185 305.031C182.306 305.102 181.336 305.501 181.367 306.136ZM203.673 302.998L203.819 306.878L205.54 306.814L205.588 308.07L203.866 308.135L204.02 312.22L202.503 312.277L202.156 303.055L203.673 302.998ZM194.042 305.947L193.997 304.731L196.907 304.621L196.855 303.241L198.371 303.184L198.423 304.564L201.32 304.455L201.365 305.671L194.042 305.947ZM194.779 308.792C194.725 307.371 195.926 306.382 197.723 306.314C199.506 306.247 200.771 307.144 200.831 308.564C200.878 309.978 199.683 310.947 197.9 311.014C196.103 311.082 194.832 310.206 194.779 308.792ZM196.217 315.387L196.082 311.794L197.599 311.737L197.688 314.1L204.573 313.841L204.62 315.071L196.217 315.387ZM196.254 308.736C196.276 309.481 196.92 309.881 197.856 309.839C198.792 309.811 199.411 309.363 199.383 308.619C199.355 307.867 198.703 307.454 197.767 307.489C196.831 307.524 196.219 307.985 196.254 308.736ZM219.228 302.987L219.263 303.916C219.306 304.859 219.346 305.925 219.091 307.33L217.569 307.236C217.795 305.983 217.788 305.073 217.757 304.233L210.72 304.498L210.676 303.309L219.228 302.987ZM209.628 309.629L209.582 308.426L213.927 308.263L213.838 305.899L215.341 305.843L215.43 308.206L220.785 308.005L220.831 309.207L209.628 309.629ZM210.498 313.864C213.034 313.434 214.496 312.106 214.457 310.719L214.44 310.268L215.97 310.211L215.987 310.662C216.033 312.049 217.597 313.262 220.199 313.499L219.682 314.682C217.67 314.484 216.102 313.708 215.292 312.548C214.565 313.766 213.066 314.657 211.089 315.005L210.498 313.864ZM232.09 301.915L232.554 314.266L231.093 314.321L230.628 301.97L232.09 301.915ZM221.757 307.653C221.655 304.935 222.643 303.208 224.256 303.154C225.751 303.091 226.822 304.453 227.086 306.755L228.275 306.71L228.109 302.284L229.557 302.229L229.991 313.76L228.542 313.815L228.321 307.94L227.146 307.984C227.094 310.401 226.118 311.915 224.587 311.966C222.975 312.034 221.86 310.379 221.757 307.653ZM223.164 307.6C223.23 309.534 223.748 310.554 224.533 310.518C225.353 310.494 225.799 309.437 225.733 307.504C225.654 305.578 225.129 304.551 224.31 304.588C223.524 304.611 223.085 305.674 223.164 307.6ZM238.199 304.654C238.278 306.95 239.463 309.162 241.463 309.949L240.593 311.199C239.174 310.569 238.141 309.294 237.554 307.695C237.079 309.423 236.121 310.882 234.727 311.653L233.725 310.459C235.704 309.441 236.735 307.021 236.655 304.712L236.581 302.745L238.125 302.687L238.199 304.654ZM239.978 306.845L239.932 305.615L242.527 305.517L242.377 301.528L243.88 301.471L244.345 313.836L242.843 313.892L242.574 306.747L239.978 306.845ZM255.869 301.937L255.897 302.675C255.915 303.515 255.961 304.745 255.733 306.32L254.225 306.24C254.423 304.96 254.435 304.009 254.42 303.25L249.618 303.431L249.571 302.174L255.869 301.937ZM249.035 307.557C249.765 307.523 250.585 307.485 251.452 307.439L251.357 304.925L252.86 304.868L252.953 307.334C254.228 307.232 255.536 307.087 256.725 306.871L256.848 307.961C254.297 308.522 251.382 308.68 249.217 308.768L249.035 307.557ZM251.098 313.322L250.96 309.646L252.49 309.589L252.582 312.034L259.591 311.771L259.637 313L251.098 313.322ZM257.576 310.218L257.228 300.969L258.786 300.91L258.931 304.763L260.529 304.703L260.577 305.974L258.978 306.034L259.134 310.16L257.576 310.218ZM271.314 300.439L271.779 312.803L270.276 312.86L269.811 300.495L271.314 300.439ZM261.783 303.11L261.736 301.88L267.556 301.661L267.731 306.293L263.482 306.453L263.575 308.939C265.522 308.852 267.191 308.687 269.106 308.293L269.289 309.531C267.206 309.972 265.364 310.124 263.144 310.2L262.065 310.241L261.879 305.309L266.142 305.148L266.059 302.949L261.783 303.11ZM279.216 302.112L279.262 303.328L273.21 303.555L273.164 302.339L275.459 302.253L275.399 300.641L276.901 300.584L276.962 302.196L279.216 302.112ZM273.698 307.067C273.621 305.387 274.716 304.148 276.281 304.096C277.852 304.03 279.017 305.184 279.081 306.864C279.145 308.579 278.07 309.816 276.499 309.876C274.934 309.934 273.748 308.782 273.698 307.067ZM275.036 307.016C275.067 308.014 275.651 308.615 276.45 308.578C277.242 308.555 277.779 307.912 277.742 306.915C277.705 305.945 277.121 305.324 276.328 305.353C275.529 305.383 274.993 306.047 275.036 307.016ZM280.105 311.915L279.671 300.384L281.092 300.331L281.274 305.154L282.476 305.108L282.285 300.026L283.733 299.971L284.198 312.322L282.749 312.377L282.522 306.338L281.32 306.383L281.526 311.862L280.105 311.915ZM296.855 309.096L296.902 310.339L285.617 310.764L285.57 309.52L288.179 309.422L288.062 306.3C287.057 305.77 286.429 304.905 286.395 303.812C286.314 301.844 288.191 300.474 290.849 300.374C293.52 300.274 295.508 301.498 295.576 303.466C295.623 304.545 295.075 305.434 294.14 306.037L294.259 309.193L296.855 309.096ZM287.884 303.756C287.925 305.02 289.205 305.779 291.049 305.702C292.887 305.64 294.134 304.786 294.087 303.522C294.038 302.238 292.731 301.5 290.894 301.576C289.049 301.639 287.829 302.472 287.884 303.756ZM289.682 309.366L292.715 309.252L292.618 306.676C292.151 306.796 291.64 306.87 291.094 306.891C290.561 306.911 290.054 306.875 289.585 306.797L289.682 309.366Z" fill="#303030"/>
<mask id="path-23-outside-1_6017_13949" maskUnits="userSpaceOnUse" x="69.7051" y="292.707" width="41.1945" height="41.1945" fill="black">
<rect fill="white" x="69.7051" y="292.707" width="41.1945" height="41.1945"/>
<path d="M89.1824 296.842C98.1894 296.319 105.916 303.196 106.438 312.203C106.603 315.043 106.031 317.755 104.89 320.154L107.331 325.791C107.833 326.952 106.748 328.172 105.535 327.806L100.029 326.147C97.5286 328.055 94.4517 329.264 91.0757 329.46C82.0688 329.982 74.3434 323.104 73.8205 314.097C73.2979 305.09 80.1755 297.365 89.1824 296.842Z"/>
</mask>
<path d="M89.1824 296.842C98.1894 296.319 105.916 303.196 106.438 312.203C106.603 315.043 106.031 317.755 104.89 320.154L107.331 325.791C107.833 326.952 106.748 328.172 105.535 327.806L100.029 326.147C97.5286 328.055 94.4517 329.264 91.0757 329.46C82.0688 329.982 74.3434 323.104 73.8205 314.097C73.2979 305.09 80.1755 297.365 89.1824 296.842Z" fill="#CDCFD6"/>
<path d="M89.1824 296.842L89.0085 293.847L89.0085 293.847L89.1824 296.842ZM106.438 312.203L109.433 312.029L109.433 312.029L106.438 312.203ZM104.89 320.154L102.181 318.866L101.595 320.096L102.137 321.346L104.89 320.154ZM107.331 325.791L110.084 324.6L110.084 324.598L107.331 325.791ZM105.535 327.806L104.67 330.679L104.67 330.679L105.535 327.806ZM100.029 326.147L100.894 323.275L99.427 322.833L98.2088 323.762L100.029 326.147ZM91.0757 329.46L91.2495 332.454L91.2496 332.454L91.0757 329.46ZM73.8205 314.097L70.8256 314.271L70.8256 314.271L73.8205 314.097ZM89.1824 296.842L89.3562 299.837C96.7094 299.41 103.017 305.024 103.444 312.377L106.438 312.203L109.433 312.029C108.814 301.368 99.6694 293.228 89.0085 293.847L89.1824 296.842ZM106.438 312.203L103.444 312.377C103.578 314.699 103.111 316.909 102.181 318.866L104.89 320.154L107.599 321.443C108.951 318.6 109.628 315.387 109.433 312.029L106.438 312.203ZM104.89 320.154L102.137 321.346L104.578 326.983L107.331 325.791L110.084 324.598L107.643 318.962L104.89 320.154ZM107.331 325.791L104.577 326.982C104.066 325.8 105.17 324.563 106.401 324.934L105.535 327.806L104.67 330.679C108.325 331.78 111.601 328.105 110.084 324.6L107.331 325.791ZM105.535 327.806L106.401 324.934L100.894 323.275L100.029 326.147L99.1632 329.019L104.67 330.679L105.535 327.806ZM100.029 326.147L98.2088 323.762C96.1689 325.319 93.6616 326.304 90.9019 326.465L91.0757 329.46L91.2496 332.454C95.2418 332.223 98.8883 330.791 101.849 328.532L100.029 326.147ZM91.0757 329.46L90.902 326.465C83.5492 326.891 77.2423 321.276 76.8155 313.923L73.8205 314.097L70.8256 314.271C71.4444 324.931 80.5884 333.073 91.2495 332.454L91.0757 329.46ZM73.8205 314.097L76.8155 313.923C76.3888 306.57 82.0034 300.263 89.3563 299.837L89.1824 296.842L89.0085 293.847C78.3476 294.466 70.2069 303.61 70.8256 314.271L73.8205 314.097Z" fill="#CDCFD6" mask="url(#path-23-outside-1_6017_13949)"/>
<mask id="path-25-outside-2_6017_13949" maskUnits="userSpaceOnUse" x="69.7051" y="292.881" width="38.0257" height="38.0257" fill="black">
<rect fill="white" x="69.7051" y="292.881" width="38.0257" height="38.0257"/>
<path d="M87.7483 296.925C95.9629 296.448 103.01 302.74 103.489 310.979C103.639 313.575 103.118 316.055 102.078 318.248L104.195 323.15C104.698 324.313 103.613 325.535 102.403 325.169L97.6464 323.73C95.3662 325.476 92.5597 326.581 89.4801 326.759C81.2653 327.236 74.218 320.944 73.7398 312.705C73.2616 304.467 79.5335 297.402 87.7483 296.925Z"/>
</mask>
<path d="M87.7483 296.925C95.9629 296.448 103.01 302.74 103.489 310.979C103.639 313.575 103.118 316.055 102.078 318.248L104.195 323.15C104.698 324.313 103.613 325.535 102.403 325.169L97.6464 323.73C95.3662 325.476 92.5597 326.581 89.4801 326.759C81.2653 327.236 74.218 320.944 73.7398 312.705C73.2616 304.467 79.5335 297.402 87.7483 296.925Z" fill="#505056"/>
<path d="M87.7483 296.925L87.5745 293.93L87.5744 293.93L87.7483 296.925ZM103.489 310.979L106.484 310.805L106.484 310.805L103.489 310.979ZM102.078 318.248L99.3673 316.964L98.7857 318.191L99.3242 319.438L102.078 318.248ZM104.195 323.15L106.949 321.96L106.949 321.96L104.195 323.15ZM102.403 325.169L101.534 328.04L101.535 328.041L102.403 325.169ZM97.6464 323.73L98.5149 320.859L97.0435 320.414L95.8228 321.348L97.6464 323.73ZM89.4801 326.759L89.6539 329.754L89.654 329.754L89.4801 326.759ZM73.7398 312.705L70.7448 312.879L70.7448 312.879L73.7398 312.705ZM87.7483 296.925L87.9221 299.92C94.4746 299.54 100.111 304.56 100.494 311.153L103.489 310.979L106.484 310.805C105.91 300.92 97.4512 293.357 87.5745 293.93L87.7483 296.925ZM103.489 310.979L100.494 311.153C100.614 313.233 100.197 315.212 99.3673 316.964L102.078 318.248L104.789 319.533C106.039 316.897 106.664 313.917 106.484 310.805L103.489 310.979ZM102.078 318.248L99.3242 319.438L101.441 324.339L104.195 323.15L106.949 321.96L104.832 317.059L102.078 318.248ZM104.195 323.15L101.441 324.339C100.941 323.181 102.015 321.918 103.271 322.297L102.403 325.169L101.535 328.041C105.211 329.152 108.454 325.446 106.949 321.96L104.195 323.15ZM102.403 325.169L103.271 322.297L98.5149 320.859L97.6464 323.73L96.7778 326.602L101.534 328.04L102.403 325.169ZM97.6464 323.73L95.8228 321.348C94.0034 322.741 91.7679 323.621 89.3062 323.764L89.4801 326.759L89.654 329.754C93.3516 329.54 96.7289 328.211 99.4699 326.112L97.6464 323.73ZM89.4801 326.759L89.3062 323.764C82.7536 324.145 77.1174 319.124 76.7348 312.532L73.7398 312.705L70.7448 312.879C71.3186 322.764 79.777 330.328 89.6539 329.754L89.4801 326.759ZM73.7398 312.705L76.7348 312.532C76.3521 305.939 81.3696 300.3 87.9221 299.92L87.7483 296.925L87.5744 293.93C77.6975 294.503 70.1711 302.995 70.7448 312.879L73.7398 312.705Z" fill="#FAFAFC" mask="url(#path-25-outside-2_6017_13949)"/>
<path d="M92.1326 307.915C92.836 307.526 93.5642 308.672 92.986 309.303C92.4078 309.934 92.3991 309.816 92.168 310.139C91.9214 310.463 91.7301 310.798 91.5942 311.146C91.4582 311.494 91.3988 311.815 91.4158 312.108L90.6922 312.15C90.6961 311.948 90.7874 311.773 90.9661 311.624C91.1448 311.474 91.3664 311.392 91.6309 311.376C92.1133 311.348 92.5364 311.509 92.9002 311.859C93.2649 312.225 93.4633 312.685 93.4955 313.239C93.5295 313.825 93.3481 314.33 92.9512 314.755C92.5396 315.197 92.0304 315.435 91.4236 315.47C90.9879 315.495 90.5917 315.395 90.2351 315.168C89.8793 314.957 89.5891 314.664 89.3645 314.291C89.1398 313.917 89.0137 313.492 88.9859 313.014C88.9564 312.506 89.0794 311.934 89.3548 311.3C89.6311 310.681 90.0095 310.071 90.4899 309.471C90.9703 308.871 91.4291 308.303 92.1326 307.915Z" fill="#FAFAFC"/>
<path d="M85.743 308.284C86.4465 307.895 87.1746 309.042 86.5965 309.672C86.0183 310.303 86.0096 310.186 85.7785 310.508C85.5318 310.832 85.3406 311.168 85.2046 311.516C85.0687 311.864 85.0092 312.184 85.0262 312.477L84.3027 312.519C84.3066 312.318 84.3979 312.142 84.5766 311.993C84.7553 311.843 84.9769 311.761 85.2414 311.746C85.7238 311.718 86.1469 311.879 86.5107 312.229C86.8753 312.594 87.0738 313.054 87.106 313.609C87.14 314.194 86.9585 314.7 86.5617 315.125C86.1501 315.566 85.6409 315.804 85.0341 315.84C84.5984 315.865 84.2022 315.764 83.8456 315.537C83.4898 315.326 83.1996 315.034 82.975 314.66C82.7503 314.287 82.6241 313.861 82.5964 313.383C82.5669 312.875 82.6898 312.303 82.9653 311.669C83.2416 311.05 83.62 310.44 84.1004 309.84C84.5808 309.24 85.0396 308.673 85.743 308.284Z" fill="#FAFAFC"/>
</g>
<defs>
<filter id="filter0_d_6017_13949" x="45" y="15.9995" width="283.144" height="102.138" filterUnits="userSpaceOnUse" color-interpolation-filters="sRGB">
<feFlood flood-opacity="0" result="BackgroundImageFix"/>
<feColorMatrix in="SourceAlpha" type="matrix" values="0 0 0 0 0 0 0 0 0 0 0 0 0 0 0 0 0 0 127 0" result="hardAlpha"/>
<feOffset dy="4"/>
<feGaussianBlur stdDeviation="2"/>
<feComposite in2="hardAlpha" operator="out"/>
<feColorMatrix type="matrix" values="0 0 0 0 0.523287 0 0 0 0 0.523287 0 0 0 0 0.523287 0 0 0 0.2 0"/>
<feBlend mode="normal" in2="BackgroundImageFix" result="effect1_dropShadow_6017_13949"/>
<feBlend mode="normal" in="SourceGraphic" in2="effect1_dropShadow_6017_13949" result="shape"/>
</filter>
<filter id="filter1_d_6017_13949" x="39.4135" y="141.139" width="294.832" height="100.631" filterUnits="userSpaceOnUse" color-interpolation-filters="sRGB">
<feFlood flood-opacity="0" result="BackgroundImageFix"/>
<feColorMatrix in="SourceAlpha" type="matrix" values="0 0 0 0 0 0 0 0 0 0 0 0 0 0 0 0 0 0 127 0" result="hardAlpha"/>
<feOffset dy="4"/>
<feGaussianBlur stdDeviation="2"/>
<feComposite in2="hardAlpha" operator="out"/>
<feColorMatrix type="matrix" values="0 0 0 0 0.523287 0 0 0 0 0.523287 0 0 0 0 0.523287 0 0 0 0.2 0"/>
<feBlend mode="normal" in2="BackgroundImageFix" result="effect1_dropShadow_6017_13949"/>
<feBlend mode="normal" in="SourceGraphic" in2="effect1_dropShadow_6017_13949" result="shape"/>
</filter>
<filter id="filter2_d_6017_13949" x="45" y="264.77" width="282.816" height="98.173" filterUnits="userSpaceOnUse" color-interpolation-filters="sRGB">
<feFlood flood-opacity="0" result="BackgroundImageFix"/>
<feColorMatrix in="SourceAlpha" type="matrix" values="0 0 0 0 0 0 0 0 0 0 0 0 0 0 0 0 0 0 127 0" result="hardAlpha"/>
<feOffset dy="4"/>
<feGaussianBlur stdDeviation="2"/>
<feComposite in2="hardAlpha" operator="out"/>
<feColorMatrix type="matrix" values="0 0 0 0 0.523287 0 0 0 0 0.523287 0 0 0 0 0.523287 0 0 0 0.25 0"/>
<feBlend mode="normal" in2="BackgroundImageFix" result="effect1_dropShadow_6017_13949"/>
<feBlend mode="normal" in="SourceGraphic" in2="effect1_dropShadow_6017_13949" result="shape"/>
</filter>
</defs>
</svg>
