<svg width="48" height="48" viewBox="0 0 48 48" fill="none" xmlns="http://www.w3.org/2000/svg">
<path d="M17.8 22.6V25.45C17.8 25.5978 17.7655 25.7435 17.6993 25.8756L16.489 28.3H30.5148L29.3026 25.8756C29.2358 25.7437 29.2006 25.5979 29.2 25.45V22.6C29.2 21.0883 28.5995 19.6384 27.5305 18.5695C26.4616 17.5005 25.0117 16.9 23.5 16.9C21.9883 16.9 20.5384 17.5005 19.4695 18.5695C18.4005 19.6384 17.8 21.0883 17.8 22.6ZM19.7 30.2H14.95C14.788 30.2 14.6287 30.1586 14.4872 30.0796C14.3457 30.0007 14.2268 29.8869 14.1417 29.7491C14.0565 29.6112 14.0081 29.4539 14.0009 29.2921C13.9938 29.1302 14.0281 28.9692 14.1007 28.8244L15.9 25.2258V22.6C15.9 20.5844 16.7007 18.6513 18.126 17.226C19.5513 15.8007 21.4843 15 23.5 15C25.5157 15 27.4487 15.8007 28.874 17.226C30.2993 18.6513 31.1 20.5844 31.1 22.6V25.2258L32.8993 28.8244C32.9719 28.9692 33.0062 29.1302 32.9991 29.2921C32.9919 29.4539 32.9435 29.6112 32.8583 29.7491C32.7732 29.8869 32.6543 30.0007 32.5128 30.0796C32.3713 30.1586 32.212 30.2 32.05 30.2H27.3C27.3 31.2078 26.8997 32.1744 26.187 32.887C25.4744 33.5996 24.5078 34 23.5 34C22.4922 34 21.5256 33.5996 20.813 32.887C20.1003 32.1744 19.7 31.2078 19.7 30.2ZM25.4 30.2H21.6C21.6 30.7039 21.8002 31.1872 22.1565 31.5435C22.5128 31.8998 22.9961 32.1 23.5 32.1C24.0039 32.1 24.4872 31.8998 24.8435 31.5435C25.1998 31.1872 25.4 30.7039 25.4 30.2Z" fill="#303030"/>
</svg>
