<svg width="48" height="48" viewBox="0 0 48 48" fill="none" xmlns="http://www.w3.org/2000/svg">
<path d="M28 29.875C28 32.0841 26.2091 33.875 24 33.875C21.7909 33.875 20 32.0841 20 29.875" stroke="#303030" stroke-width="1.7"/>
<path d="M15.632 22.8414C15.1951 18.0953 18.9308 14 23.697 14C28.4631 14 32.1988 18.0953 31.7619 22.8414L31.4914 25.7803C31.4872 25.8268 31.4979 25.8734 31.5221 25.9133L32.1586 26.9631C32.9668 28.2959 32.0072 30 30.4484 30H23.697H17.1221C15.6635 30 14.6955 28.4889 15.3053 27.1638L15.8847 25.9049C15.9007 25.8702 15.9072 25.8318 15.9037 25.7937L15.632 22.8414Z" stroke="#303030" stroke-width="1.7"/>
</svg>
