<svg width="24" height="24" viewBox="0 0 24 24" fill="none" xmlns="http://www.w3.org/2000/svg">
<path d="M5.79998 10.6V13.45C5.79997 13.5978 5.76549 13.7435 5.69928 13.8756L4.48898 16.3H18.5148L17.3026 13.8756C17.2358 13.7437 17.2006 13.5979 17.2 13.45V10.6C17.2 9.08827 16.5995 7.63845 15.5305 6.56949C14.4616 5.50053 13.0117 4.9 11.5 4.9C9.98826 4.9 8.53844 5.50053 7.46948 6.56949C6.40052 7.63845 5.79998 9.08827 5.79998 10.6ZM7.69999 18.2H2.94997C2.78797 18.2 2.62866 18.1586 2.48718 18.0796C2.34571 18.0007 2.22676 17.8869 2.14165 17.7491C2.05655 17.6112 2.00811 17.4539 2.00093 17.2921C1.99376 17.1302 2.02809 16.9692 2.10067 16.8244L3.89997 13.2258V10.6C3.89997 8.58435 4.70069 6.65127 6.12597 5.22599C7.55125 3.80071 9.48435 3 11.5 3C13.5157 3 15.4487 3.80071 16.874 5.22599C18.2993 6.65127 19.1 8.58435 19.1 10.6V13.2258L20.8993 16.8244C20.9719 16.9692 21.0062 17.1302 20.9991 17.2921C20.9919 17.4539 20.9435 17.6112 20.8583 17.7491C20.7732 17.8869 20.6543 18.0007 20.5128 18.0796C20.3713 18.1586 20.212 18.2 20.05 18.2H15.3C15.3 19.2078 14.8997 20.1744 14.187 20.887C13.4744 21.5996 12.5078 22 11.5 22C10.4922 22 9.52563 21.5996 8.81299 20.887C8.10035 20.1744 7.69999 19.2078 7.69999 18.2ZM13.4 18.2H9.59999C9.59999 18.7039 9.80017 19.1872 10.1565 19.5435C10.5128 19.8998 10.9961 20.1 11.5 20.1C12.0039 20.1 12.4872 19.8998 12.8435 19.5435C13.1998 19.1872 13.4 18.7039 13.4 18.2Z" fill="#303030"/>
</svg>
