<svg width="59" height="31" viewBox="0 0 59 31" fill="none" xmlns="http://www.w3.org/2000/svg">
<g clip-path="url(#clip0_4551_11140)">
<path d="M8.82715 6.27832C10.5046 6.2784 12.0228 6.67359 13.3477 7.45312C14.6686 8.23274 15.7327 9.30754 16.5098 10.6494C17.2887 11.9932 17.6835 13.5324 17.6836 15.2031C17.6836 16.874 17.3227 18.3976 16.6094 19.7275C15.8941 21.0615 14.9034 22.1344 13.6641 22.9141C12.4189 23.6975 10.9945 24.0966 9.43262 24.0967C8.16945 24.0967 6.98972 23.8291 5.92578 23.3027C5.25439 22.9698 4.63879 22.5568 4.08691 22.0684V29.0234C4.08685 29.5975 3.89698 30.0859 3.52246 30.4746C3.1439 30.8674 2.62372 31.0664 2.04395 31.0664C1.46428 31.0663 0.974396 30.8692 0.585938 30.4805C0.197499 30.0917 7.92748e-05 29.6015 0 29.0215V15.2012C0.0199622 13.5204 0.420476 11.9932 1.18555 10.6514C1.95265 9.30748 3.01297 8.23274 4.33398 7.45312C5.65891 6.67361 7.1496 6.27832 8.82715 6.27832ZM29.2988 6.27637C30.9944 6.27637 32.5247 6.66129 33.8477 7.41895V7.4209C35.1725 8.1805 36.2262 9.24141 36.9854 10.5771C37.7405 11.911 38.126 13.4884 38.126 15.2031C38.126 16.9178 37.747 18.4631 37.002 19.7949C36.2549 21.1307 35.2027 22.1935 33.8779 22.9531C32.5549 23.7108 31.0163 24.0957 29.2988 24.0957C27.5813 24.0957 26.0407 23.7108 24.7197 22.9531C23.395 22.1955 22.3391 21.1326 21.582 19.7969C20.827 18.465 20.4424 16.9378 20.4424 15.2012C20.4424 13.4645 20.8249 11.9071 21.582 10.5752C22.3391 9.23945 23.3949 8.17858 24.7197 7.41895C26.0427 6.66127 27.6032 6.27637 29.2988 6.27637ZM56.4961 7.7666C57.0754 7.7666 57.5818 7.97848 57.998 8.39453C58.4049 8.80138 58.6143 9.28898 58.625 9.85059H58.626V9.87598C58.6261 9.88236 58.627 9.88911 58.627 9.89551C58.6269 9.90153 58.626 9.90806 58.626 9.91406V21.9023H58.625C58.6252 21.9119 58.627 21.9221 58.627 21.9316C58.6268 22.5124 58.4141 23.0175 57.998 23.4336C57.5803 23.8512 57.0771 24.0595 56.498 24.0596C55.9189 24.0596 55.4123 23.8476 54.9961 23.4316C54.5783 23.0138 54.3673 22.5071 54.3672 21.9297C54.3672 21.9207 54.368 21.9113 54.3682 21.9023H54.3662V9.85059H54.3691C54.3795 9.29137 54.5886 8.80007 54.9941 8.39453C55.4121 7.97679 55.9168 7.76661 56.4961 7.7666ZM44.4414 1.12598C45.021 1.12598 45.5053 1.3177 45.8838 1.69629C46.2624 2.07513 46.4541 2.56239 46.4541 3.14062V7.00586H48.5303C49.0802 7.00586 49.5408 7.17394 49.8975 7.50293C50.2639 7.84187 50.4512 8.29266 50.4512 8.83887C50.4511 9.33927 50.2601 9.78029 49.8975 10.1152C49.5408 10.4442 49.0822 10.6113 48.5303 10.6113H46.4541V17.5977C46.4541 18.2934 46.6353 18.8539 47.0078 19.3125C47.3544 19.7391 47.7629 19.9462 48.2568 19.9463H49.2871L49.2891 19.9482C49.7912 19.9482 50.2403 20.1522 50.585 20.5391C50.9215 20.9159 51.0908 21.3748 51.0908 21.9629C51.0907 22.5509 50.8572 23.0588 50.415 23.4336C49.9907 23.7924 49.449 23.9765 48.8057 23.9766H48.2617C47.1599 23.9766 46.1513 23.6893 45.2666 23.125C44.3879 22.5647 43.6867 21.7931 43.1846 20.8301C42.6845 19.873 42.4316 18.786 42.4316 17.5977V10.6113H41.5371C40.9853 10.6113 40.5246 10.4441 40.168 10.1152C39.8054 9.78029 39.6143 9.33927 39.6143 8.83887C39.6143 8.29254 39.8014 7.84189 40.168 7.50293C40.5226 7.17394 40.9832 7.00586 41.5352 7.00586H42.4297V3.14062C42.4297 2.5604 42.6205 2.07513 42.999 1.69629C43.3775 1.31756 43.8618 1.12604 44.4414 1.12598ZM8.82715 10.001C7.9146 10.001 7.07897 10.2263 6.34375 10.6709C5.60655 11.1155 5.019 11.7361 4.60059 12.5117C4.17823 13.2933 3.96487 14.2163 3.96484 15.1992C3.96484 16.1822 4.17818 17.0778 4.60059 17.8574C5.02092 18.6349 5.60675 19.2526 6.34375 19.6992C7.07897 20.1439 7.89467 20.3691 8.82715 20.3691C9.75943 20.3691 10.6001 20.1438 11.3232 19.6992C12.0523 19.2527 12.64 18.6309 13.0703 17.8535C13.5007 17.0719 13.7197 16.2002 13.7197 15.1992C13.7197 14.1984 13.5007 13.2952 13.0703 12.5156C12.6399 11.7381 12.0524 11.1175 11.3232 10.6689C10.5981 10.2264 9.75738 10.0011 8.82715 10.001ZM29.2988 10.0029C28.3445 10.0029 27.4938 10.2245 26.7686 10.6592C26.0433 11.0938 25.4614 11.7078 25.043 12.4834C24.6206 13.265 24.4053 14.1803 24.4053 15.2012C24.4053 16.222 24.6186 17.1317 25.041 17.9014C25.4594 18.6669 26.0414 19.2773 26.7686 19.7139C27.4937 20.1484 28.3446 20.3691 29.2988 20.3691H29.3008C30.255 20.3691 31.1059 20.1484 31.8311 19.7139C32.5563 19.2772 33.1326 18.6689 33.541 17.9053C33.9535 17.1356 34.1621 16.226 34.1621 15.2012C34.1621 14.1763 33.9535 13.2611 33.5391 12.4795C33.1286 11.7079 32.5544 11.0938 31.8291 10.6592C31.1039 10.2246 30.2532 10.0029 29.2988 10.0029ZM56.4961 0.969727C57.1754 0.969727 57.7697 1.21871 58.2578 1.70703C58.7478 2.19741 58.995 2.78805 58.9951 3.46973C58.995 4.15145 58.7458 4.74402 58.2578 5.23242C57.7677 5.7228 57.1754 5.9707 56.4961 5.9707C55.8169 5.97059 55.2253 5.71874 54.7373 5.23047C54.2473 4.74007 54.0001 4.14552 54 3.46777C54.0001 2.79006 54.2474 2.19543 54.7354 1.70703C55.2253 1.21684 55.817 0.969842 56.4961 0.969727Z" fill="#2FB2FF"/>
</g>
<defs>
<clipPath id="clip0_4551_11140">
<rect width="59" height="31" fill="white"/>
</clipPath>
</defs>
</svg>
