<svg width="59" height="31" viewBox="0 0 59 31" fill="none" xmlns="http://www.w3.org/2000/svg">
<g clip-path="url(#clip0_1291_10943)">
<path d="M13.7142 7.66627C12.4046 6.8957 10.9019 6.50549 9.24375 6.50549C7.58556 6.50549 6.11248 6.8957 4.80287 7.66627C3.49719 8.43683 2.44949 9.49907 1.69129 10.8274C0.935064 12.1537 0.539225 13.6633 0.519531 15.3246V28.9839C0.519531 29.5574 0.714497 30.0422 1.09852 30.4265C1.48254 30.8108 1.967 31.0059 2.54008 31.0059C3.11316 31.0059 3.62716 30.8089 4.00134 30.4206C4.37158 30.0363 4.55867 29.5535 4.55867 28.9859V22.1119C5.10418 22.5948 5.71271 23.0027 6.37638 23.3318C7.42801 23.8521 8.59386 24.1162 9.84243 24.1162C11.3864 24.1162 12.7945 23.722 14.0253 22.9475C15.2503 22.1769 16.229 21.1167 16.936 19.7982C17.6411 18.4838 17.9975 16.9781 17.9975 15.3266C17.9975 13.6751 17.6076 12.1537 16.8376 10.8254C16.0695 9.49907 15.0179 8.43683 13.7122 7.66627H13.7142ZM9.24375 10.1849C10.1634 10.1849 10.9945 10.4076 11.7113 10.8451C12.4321 11.2885 13.0131 11.9014 13.4385 12.67C13.8638 13.4406 14.0805 14.3333 14.0805 15.3227C14.0805 16.312 13.8638 17.1732 13.4385 17.9457C13.0131 18.7143 12.4321 19.3292 11.7113 19.7707C10.9965 20.2101 10.1654 20.4328 9.24375 20.4328C8.32209 20.4328 7.51663 20.2101 6.78994 19.7707C6.06128 19.3292 5.48229 18.7183 5.06676 17.9497C4.64926 17.1791 4.43854 16.2942 4.43854 15.3227C4.43854 14.3511 4.64926 13.4386 5.06676 12.6661C5.48032 11.8995 6.06128 11.2865 6.78994 10.8471C7.51663 10.4076 8.34179 10.1849 9.24375 10.1849Z" fill="#2FB2FF"/>
<path d="M33.9749 7.63278C32.6672 6.8839 31.1548 6.50354 29.4789 6.50354C27.8029 6.50354 26.2609 6.8839 24.9533 7.63278C23.6437 8.38364 22.5999 9.43208 21.8516 10.7525C21.1032 12.069 20.7251 13.6081 20.7251 15.3246C20.7251 17.0412 21.1052 18.5508 21.8516 19.8672C22.5999 21.1876 23.6437 22.2381 24.9533 22.9869C26.259 23.7358 27.7813 24.1162 29.4789 24.1162C31.1764 24.1162 32.6968 23.7358 34.0044 22.9869C35.314 22.2361 36.3539 21.1857 37.0924 19.8653C37.8289 18.5488 38.2031 17.0215 38.2031 15.3266C38.2031 13.6318 37.823 12.0729 37.0766 10.7545C36.3263 9.43406 35.2845 8.38561 33.9749 7.63475V7.63278ZM29.4789 20.4328C28.5355 20.4328 27.6946 20.2141 26.9778 19.7845C26.259 19.3529 25.6839 18.7498 25.2704 17.9931C24.8529 17.2323 24.6421 16.3337 24.6421 15.3246C24.6421 14.3156 24.8548 13.411 25.2723 12.6385C25.6859 11.8719 26.2609 11.2649 26.9778 10.8353C27.6946 10.4056 28.5355 10.1869 29.4789 10.1869C30.4222 10.1869 31.2631 10.4056 31.9799 10.8353C32.6968 11.2649 33.2639 11.8719 33.6696 12.6346C34.0793 13.4071 34.286 14.3117 34.286 15.3246C34.286 16.3376 34.0793 17.2363 33.6716 17.997C33.2679 18.7518 32.6987 19.3529 31.9819 19.7845C31.2651 20.2141 30.4241 20.4328 29.4808 20.4328H29.4789Z" fill="#2FB2FF"/>
<path d="M49.2355 20.0151H48.2174C47.729 20.0151 47.3252 19.8101 46.9826 19.3884C46.6143 18.9351 46.4351 18.3813 46.4351 17.6935V10.788H48.4872C49.0327 10.788 49.4856 10.6224 49.8381 10.2973C50.1965 9.96617 50.3856 9.53063 50.3856 9.03597C50.3856 8.49598 50.2005 8.05059 49.8381 7.71557C49.4856 7.39039 49.0307 7.22485 48.4872 7.22485H46.4351V3.40355C46.4351 2.83203 46.246 2.35117 45.8719 1.97672C45.4977 1.60228 45.0191 1.41309 44.446 1.41309C43.873 1.41309 43.3944 1.60228 43.0202 1.97672C42.6461 2.35117 42.457 2.83006 42.457 3.40355V7.22485H41.5728C41.0273 7.22485 40.5723 7.39039 40.2218 7.71557C39.8594 8.05059 39.6743 8.49598 39.6743 9.03597C39.6743 9.53063 39.8634 9.96617 40.2218 10.2973C40.5743 10.6224 41.0292 10.788 41.5747 10.788H42.459V17.6935C42.459 18.8681 42.7091 19.9421 43.2034 20.8881C43.6997 21.84 44.3929 22.6027 45.2614 23.1564C46.1357 23.7142 47.1322 23.998 48.2213 23.998H48.7589C49.395 23.998 49.9307 23.8166 50.3502 23.4619C50.7874 23.0914 51.0178 22.5889 51.0178 22.0075C51.0178 21.4261 50.8504 20.9728 50.5176 20.6004C50.1769 20.218 49.7338 20.017 49.2375 20.017L49.2355 20.0151Z" fill="#2FB2FF"/>
<path d="M56.0887 4.94266C56.7602 4.94266 57.3451 4.69828 57.8296 4.21348C58.3121 3.73064 58.5582 3.14533 58.5582 2.47133C58.5582 1.79733 58.3141 1.21399 57.8296 0.72918C57.3471 0.246345 56.7602 0 56.0887 0C55.4171 0 54.8322 0.244374 54.3478 0.72918C53.8653 1.21202 53.6211 1.7993 53.6211 2.46936C53.6211 3.13942 53.8653 3.7267 54.3497 4.21151C54.8322 4.69434 55.4191 4.94069 56.0907 4.94069L56.0887 4.94266Z" fill="#2FB2FF"/>
<path d="M56.0887 11.8384C56.7602 11.8384 57.3451 11.594 57.8296 11.1092C58.3121 10.6264 58.5582 10.0411 58.5582 9.36708C58.5582 8.69308 58.3141 8.10974 57.8296 7.62493C57.3471 7.1421 56.7602 6.89575 56.0887 6.89575C55.4171 6.89575 54.8322 7.14013 54.3478 7.62493C53.8653 8.10777 53.6211 8.69505 53.6211 9.36511C53.6211 10.0352 53.8653 10.6225 54.3497 11.1073C54.8322 11.5901 55.4191 11.8364 56.0907 11.8364L56.0887 11.8384Z" fill="#2FB2FF"/>
<path d="M56.0887 23.996C56.7602 23.996 57.3451 23.7516 57.8296 23.2668C58.3121 22.784 58.5582 22.1987 58.5582 21.5247C58.5582 20.8507 58.3141 20.2673 57.8296 19.7825C57.3471 19.2997 56.7602 19.0533 56.0887 19.0533C55.4171 19.0533 54.8322 19.2977 54.3478 19.7825C53.8653 20.2654 53.6211 20.8526 53.6211 21.5227C53.6211 22.1928 53.8653 22.78 54.3497 23.2649C54.8322 23.7477 55.4191 23.994 56.0907 23.994L56.0887 23.996Z" fill="#2FB2FF"/>
<path opacity="0.5" d="M58.5563 9.36902H53.6211V21.5266H58.5563V9.36902Z" fill="#2FB2FF"/>
</g>
<defs>
<clipPath id="clip0_1291_10943">
<rect width="59" height="31" fill="white"/>
</clipPath>
</defs>
</svg>
