<svg width="48" height="48" viewBox="0 0 48 48" fill="none" xmlns="http://www.w3.org/2000/svg">
<path d="M22.2065 11.634C22.9402 10.1475 25.0598 10.1475 25.7935 11.634L28.2369 16.585C28.5283 17.1753 29.0914 17.5844 29.7428 17.6791L35.2066 18.473C36.847 18.7114 37.502 20.7273 36.315 21.8844L32.3614 25.7382C31.89 26.1977 31.6749 26.8597 31.7862 27.5085L32.7195 32.9502C32.9997 34.584 31.2849 35.8299 29.8176 35.0585L24.9307 32.4893C24.348 32.183 23.652 32.183 23.0693 32.4893L18.1824 35.0585C16.7151 35.8299 15.0003 34.584 15.2805 32.9501L16.2138 27.5085C16.3251 26.8597 16.11 26.1977 15.6386 25.7382L11.685 21.8844C10.498 20.7273 11.153 18.7114 12.7934 18.473L18.2572 17.6791C18.9086 17.5844 19.4717 17.1753 19.7631 16.585L22.2065 11.634Z" fill="#2FB2FF"/>
</svg>
