<svg width="327" height="53" viewBox="0 0 327 53" fill="none" xmlns="http://www.w3.org/2000/svg">
<path d="M11.7539 13.5508V14.6309H0.542969V13.5508H5.47852V10.7207H1.82812V4.89648H10.4141V10.7207H6.76367V13.5508H11.7539ZM3.08594 9.69531H9.14258V5.93555H3.08594V9.69531ZM17.1816 5.86719C17.1816 7.3916 18.3711 8.7998 20.2578 9.35352L19.6016 10.3652C18.1729 9.92773 17.0928 8.99805 16.5322 7.79492C15.9854 9.08691 14.8916 10.0986 13.4219 10.584L12.7656 9.55859C14.6729 8.97754 15.8623 7.47363 15.8691 5.86719V5.73047H13.1211V4.67773H19.875V5.73047H17.1816V5.86719ZM14.7891 16.0117V11.1172H16.0605V12.4844H21.5156V11.1172H22.8008V16.0117H14.7891ZM16.0605 14.959H21.5156V13.5098H16.0605V14.959ZM21.502 10.543V3.91211H22.8008V10.543H21.502ZM31.8789 4.45898C33.6699 4.45898 34.9277 5.44336 34.9414 6.90625C34.9277 8.15039 33.9844 9.05957 32.5625 9.28516V10.3789C33.6426 10.3174 34.7363 10.2148 35.748 10.0645L35.8438 11.0215C33.2734 11.4863 30.3887 11.5342 28.2832 11.5273L28.1465 10.4746C29.0625 10.4814 30.1357 10.4746 31.2637 10.4336V9.29883C29.8008 9.09375 28.8232 8.1709 28.8301 6.90625C28.8232 5.44336 30.0811 4.45898 31.8789 4.45898ZM29.8828 15.9023V12.4707H31.1816V14.8359H38.2363V15.9023H29.8828ZM30.0469 6.90625C30.0332 7.77441 30.7988 8.3418 31.8789 8.3418C32.9658 8.3418 33.7109 7.77441 33.7109 6.90625C33.7109 6.01758 32.9658 5.45703 31.8789 5.45703C30.7988 5.45703 30.0332 6.01758 30.0469 6.90625ZM36.5 13.291V3.92578H37.7988V7.97266H39.5488V9.06641H37.7988V13.291H36.5ZM51.4707 13.6055V14.6992H40.2598V13.6055H43.3223V11.4453H41.627V7.54883H48.8184V5.83984H41.5996V4.77344H50.1035V8.60156H42.9121V10.3789H50.3906V11.4453H48.5312V13.6055H51.4707ZM44.5801 13.6055H47.2598V11.4453H44.5801V13.6055Z" fill="#7C7C83"/>
<path d="M102.367 3.91211V10.4883H101.068V3.91211H102.367ZM92.4551 7.31641C92.4619 5.63477 93.8428 4.46582 95.7227 4.47266C97.5957 4.46582 98.9766 5.63477 98.9766 7.31641C98.9766 8.99121 97.5957 10.1602 95.7227 10.1465C93.8428 10.1602 92.4619 8.99121 92.4551 7.31641ZM93.7266 7.31641C93.7197 8.37598 94.5605 9.08008 95.7227 9.08008C96.8711 9.08008 97.7051 8.37598 97.7051 7.31641C97.7051 6.27051 96.8711 5.55957 95.7227 5.56641C94.5605 5.55957 93.7197 6.27051 93.7266 7.31641ZM94.3555 16.0117V11.0762H95.627V12.457H101.082V11.0762H102.367V16.0117H94.3555ZM95.627 14.9453H101.082V13.4824H95.627V14.9453ZM114.098 4.52734V5.45703C114.104 6.41406 114.104 7.52148 113.783 8.99805H115.52V10.0645H104.309V8.99805H112.471C112.799 7.56934 112.812 6.52344 112.812 5.59375H105.717V4.52734H114.098ZM105.676 16.0117V11.623H114.111V16.0117H105.676ZM106.947 14.959H112.826V12.6484H106.947V14.959ZM123.545 4.45898C125.336 4.45898 126.594 5.44336 126.607 6.90625C126.594 8.15039 125.65 9.05957 124.229 9.28516V10.3789C125.309 10.3174 126.402 10.2148 127.414 10.0645L127.51 11.0215C124.939 11.4863 122.055 11.5342 119.949 11.5273L119.812 10.4746C120.729 10.4814 121.802 10.4746 122.93 10.4336V9.29883C121.467 9.09375 120.489 8.1709 120.496 6.90625C120.489 5.44336 121.747 4.45898 123.545 4.45898ZM121.549 15.9023V12.4707H122.848V14.8359H129.902V15.9023H121.549ZM121.713 6.90625C121.699 7.77441 122.465 8.3418 123.545 8.3418C124.632 8.3418 125.377 7.77441 125.377 6.90625C125.377 6.01758 124.632 5.45703 123.545 5.45703C122.465 5.45703 121.699 6.01758 121.713 6.90625ZM128.166 13.291V3.92578H129.465V7.97266H131.215V9.06641H129.465V13.291H128.166ZM143.137 13.6055V14.6992H131.926V13.6055H134.988V11.4453H133.293V7.54883H140.484V5.83984H133.266V4.77344H141.77V8.60156H134.578V10.3789H142.057V11.4453H140.197V13.6055H143.137ZM136.246 13.6055H138.926V11.4453H136.246V13.6055Z" fill="#2FB2FF"/>
<path d="M185.518 5.04688V7.97266H187.855V5.04688H189.059V13.1406H184.287V5.04688H185.518ZM185.518 12.0879H187.855V8.99805H185.518V12.0879ZM190.426 15.5605V4.14453H191.656V8.71094H193.174V3.91211H194.418V16.1621H193.174V9.77734H191.656V15.5605H190.426ZM202.197 8.20508V9.91406H207.146V10.9668H195.977V9.91406H200.912V8.20508H202.197ZM196.619 7.84961C198.964 7.54883 200.892 6.16797 200.898 4.62305V4.10352H202.211V4.62305C202.204 6.18848 204.125 7.54883 206.49 7.84961L205.984 8.875C204.043 8.56055 202.327 7.61719 201.548 6.26367C200.769 7.61719 199.053 8.56055 197.098 8.875L196.619 7.84961ZM197.303 14.0156C197.303 12.6416 198.889 11.8691 201.555 11.8691C204.2 11.8691 205.772 12.6416 205.779 14.0156C205.772 15.3828 204.2 16.1416 201.555 16.1348C198.889 16.1416 197.303 15.3828 197.303 14.0156ZM198.615 14.0156C198.608 14.7471 199.661 15.1504 201.555 15.1504C203.421 15.1504 204.48 14.7471 204.48 14.0156C204.48 13.2705 203.421 12.874 201.555 12.8672C199.661 12.874 198.608 13.2705 198.615 14.0156ZM215.992 7.0293C215.979 9.26465 217.332 11.5205 219.232 12.3613L218.453 13.3867C217.045 12.7168 215.931 11.3428 215.356 9.66797C214.789 11.4658 213.661 12.9424 212.191 13.6602L211.398 12.5664C213.326 11.7119 214.68 9.36719 214.68 7.0293V4.9375H215.992V7.0293ZM220.34 16.1895V3.91211H221.639V16.1895H220.34ZM227.873 6.11328C227.866 7.67871 228.953 9.16211 230.826 9.79102L230.17 10.8027C228.782 10.3242 227.764 9.36719 227.23 8.16406C226.697 9.4834 225.631 10.5293 224.195 11.0352L223.498 10.0234C225.412 9.37402 226.567 7.78809 226.574 6.09961V5.77148H223.881V4.71875H230.512V5.77148H227.873V6.11328ZM225.125 12.9492V11.8965H233.219V16.1621H231.92V12.9492H225.125ZM231.92 11.2949V3.91211H233.219V7.05664H234.996V8.15039H233.219V11.2949H231.92Z" fill="#7C7C83"/>
<path d="M277.184 5.04688V7.97266H279.521V5.04688H280.725V13.1406H275.953V5.04688H277.184ZM277.184 12.0879H279.521V8.99805H277.184V12.0879ZM282.092 15.5605V4.14453H283.322V8.71094H284.84V3.91211H286.084V16.1621H284.84V9.77734H283.322V15.5605H282.092ZM293.863 8.20508V9.91406H298.812V10.9668H287.643V9.91406H292.578V8.20508H293.863ZM288.285 7.84961C290.63 7.54883 292.558 6.16797 292.564 4.62305V4.10352H293.877V4.62305C293.87 6.18848 295.791 7.54883 298.156 7.84961L297.65 8.875C295.709 8.56055 293.993 7.61719 293.214 6.26367C292.435 7.61719 290.719 8.56055 288.764 8.875L288.285 7.84961ZM288.969 14.0156C288.969 12.6416 290.555 11.8691 293.221 11.8691C295.866 11.8691 297.438 12.6416 297.445 14.0156C297.438 15.3828 295.866 16.1416 293.221 16.1348C290.555 16.1416 288.969 15.3828 288.969 14.0156ZM290.281 14.0156C290.274 14.7471 291.327 15.1504 293.221 15.1504C295.087 15.1504 296.146 14.7471 296.146 14.0156C296.146 13.2705 295.087 12.874 293.221 12.8672C291.327 12.874 290.274 13.2705 290.281 14.0156ZM306.879 4.45898C308.67 4.45898 309.928 5.44336 309.941 6.90625C309.928 8.15039 308.984 9.05957 307.562 9.28516V10.3789C308.643 10.3174 309.736 10.2148 310.748 10.0645L310.844 11.0215C308.273 11.4863 305.389 11.5342 303.283 11.5273L303.146 10.4746C304.062 10.4814 305.136 10.4746 306.264 10.4336V9.29883C304.801 9.09375 303.823 8.1709 303.83 6.90625C303.823 5.44336 305.081 4.45898 306.879 4.45898ZM304.883 15.9023V12.4707H306.182V14.8359H313.236V15.9023H304.883ZM305.047 6.90625C305.033 7.77441 305.799 8.3418 306.879 8.3418C307.966 8.3418 308.711 7.77441 308.711 6.90625C308.711 6.01758 307.966 5.45703 306.879 5.45703C305.799 5.45703 305.033 6.01758 305.047 6.90625ZM311.5 13.291V3.92578H312.799V7.97266H314.549V9.06641H312.799V13.291H311.5ZM326.471 13.6055V14.6992H315.26V13.6055H318.322V11.4453H316.627V7.54883H323.818V5.83984H316.6V4.77344H325.104V8.60156H317.912V10.3789H325.391V11.4453H323.531V13.6055H326.471ZM319.58 13.6055H322.26V11.4453H319.58V13.6055Z" fill="#7C7C83"/>
<rect y="37" width="327" height="12" rx="6" fill="#DDDFE6"/>
<rect y="33" width="128" height="20" rx="10" fill="#94D6FD"/>
<rect x="108" y="33" width="20" height="20" rx="10" fill="#2FB2FF"/>
</svg>
