<svg width="48" height="48" viewBox="0 0 48 48" fill="none" xmlns="http://www.w3.org/2000/svg">
<path fill-rule="evenodd" clip-rule="evenodd" d="M13.8128 15.9953C15.032 14.7076 16.7728 14 18.816 14C20.6784 14 22.6672 14.8461 24 16.5014C25.3248 14.8476 27.3056 14 29.184 14C31.2224 14 32.96 14.7046 34.1824 15.9891C35.392 17.2629 36 19.0074 36 20.9426C36 24.2747 34.2192 26.9561 31.9648 29.0406C29.7168 31.1204 26.8928 32.7065 24.552 33.871C24.3806 33.9563 24.1902 34.0005 23.9972 34C23.8042 33.9995 23.6141 33.9542 23.4432 33.8679C21.1024 32.6911 18.2784 31.1174 16.0304 29.0483C13.776 26.9699 12 24.2978 12 20.9442C12 19.0135 12.6048 17.269 13.8128 15.9953ZM15.5872 17.549C14.8592 18.3182 14.4 19.4673 14.4 20.9442C14.4 23.4425 15.7056 25.5531 17.6912 27.3807C19.5248 29.0698 21.8512 30.4343 24.0032 31.5419C26.1392 30.4497 28.4672 29.0744 30.3024 27.3776C32.2912 25.5362 33.6 23.4163 33.6 20.9442C33.6 19.4627 33.1392 18.3136 32.4096 17.5444C31.6928 16.7921 30.624 16.3091 29.184 16.3091C27.6224 16.3091 25.8352 17.2752 25.1408 19.3089C25.0623 19.5403 24.9096 19.7419 24.7047 19.8848C24.4998 20.0278 24.2532 20.1047 24 20.1047C23.7468 20.1047 23.5002 20.0278 23.2953 19.8848C23.0904 19.7419 22.9377 19.5403 22.8592 19.3089C22.1664 17.2782 20.36 16.3091 18.816 16.3091C17.3712 16.3091 16.304 16.7921 15.5872 17.549Z" fill="#303030"/>
</svg>
