<svg width="24" height="24" viewBox="0 0 24 24" fill="none" xmlns="http://www.w3.org/2000/svg">
<path d="M10.8728 4.22516C11.5957 3.92495 12.4043 3.92495 13.1272 4.22516L19.1256 6.71625C19.384 6.82345 19.6052 7.00722 19.761 7.24401C19.9168 7.48081 20 7.75985 20 8.04539V15.9554C19.9998 16.2408 19.9165 16.5197 19.7608 16.7563C19.605 16.993 19.3838 17.1766 19.1256 17.2837L13.1272 19.7748C12.4043 20.0751 11.5957 20.0751 10.8728 19.7748L4.8744 17.2837C4.61603 17.1765 4.39478 16.9928 4.239 16.756C4.08322 16.5192 4 16.2402 4 15.9546V8.0462C4 7.76067 4.08322 7.48163 4.239 7.24483C4.39478 7.00804 4.61603 6.82427 4.8744 6.71707L10.8728 4.22516ZM12.676 5.36418C12.2425 5.18423 11.7575 5.18423 11.324 5.36418L9.792 6.00088L15.8136 8.39938L17.9488 7.55536L12.676 5.36418ZM14.1528 9.05575L8.172 6.67282L6.072 7.54471L12.0008 9.90633L14.1528 9.05575ZM5.2 15.9554C5.2001 15.9961 5.21203 16.0358 5.23425 16.0695C5.25648 16.1033 5.288 16.1294 5.3248 16.1447L11.324 18.6358C11.3491 18.6467 11.3744 18.6566 11.4 18.6653V10.9864L5.2 8.51656V15.9554ZM12.676 18.6358L18.6752 16.1447C18.7121 16.1294 18.7437 16.1031 18.766 16.0692C18.7882 16.0353 18.8001 15.9954 18.8 15.9546V8.53623L12.6 10.988V18.6661L12.676 18.6358Z" fill="#303030"/>
</svg>
